<svg preserveAspectRatio="none" width="100%" height="100%" overflow="visible" style="display: block;" viewBox="0 0 263.96 263.961" fill="none" xmlns="http://www.w3.org/2000/svg">
<g id="Benefits Decoration">
<path id="Decoration-02" opacity="0.2" d="M10.2793 154.043C10.0508 153.771 9.98295 153.399 10.1015 153.065L50.7244 38.5063C50.844 38.169 51.1349 37.9207 51.4868 37.8562L173.516 15.4926C173.87 15.4279 174.23 15.5578 174.462 15.8324L213.411 62.0892L253.656 109.887C253.889 110.164 253.954 110.545 253.827 110.884L210.28 226.459C210.156 226.789 209.868 227.029 209.521 227.091L90.4455 248.474C90.0934 248.537 89.7337 248.408 89.5033 248.134L49.2424 200.318L10.2793 154.043Z" stroke="var(--stroke-0, #4A7C6F)" stroke-width="4"/>
<path id="Decoration-01" opacity="0.2" d="M41.04 147.624L71.678 61.2221C71.7079 61.1378 71.7813 61.0762 71.8693 61.0601L163.905 44.1923C163.993 44.1762 164.083 44.2089 164.141 44.2772L223.871 115.216C223.929 115.285 223.945 115.38 223.914 115.464L191.07 202.633C191.039 202.715 190.967 202.775 190.88 202.791L101.072 218.919C100.984 218.934 100.894 218.902 100.836 218.834L70.4711 182.77L41.0847 147.869C41.0275 147.801 41.0103 147.707 41.04 147.624Z" stroke="var(--stroke-0, #4A7C6F)" stroke-width="4"/>
</g>
</svg>
