<svg preserveAspectRatio="none" width="100%" height="100%" overflow="visible" style="display: block;" viewBox="0 0 32 32" fill="none" xmlns="http://www.w3.org/2000/svg">
<g id="checkmark-badge">
<path id="Vector" d="M27.2008 12.9842C28.6225 14.4059 29.3333 15.1167 29.3333 16C29.3333 16.8832 28.6225 17.5941 27.2008 19.0157C26.2451 19.9715 25.9516 20.5885 25.9516 21.9305C25.9516 22.9925 26.1576 24.5035 25.3207 25.3333C24.4904 26.1567 22.9857 25.9516 21.9305 25.9516C20.6353 25.9516 20.0116 26.2049 19.0872 27.1293C18.3001 27.9165 17.2449 29.3333 16 29.3333C14.7551 29.3333 13.6999 27.9165 12.9128 27.1293C11.9884 26.2049 11.3647 25.9516 10.0694 25.9516C9.01424 25.9516 7.50957 26.1567 6.67932 25.3333C5.84241 24.5035 6.04837 22.9925 6.04837 21.9305C6.04837 20.5885 5.75488 19.9715 4.79917 19.0157C3.37752 17.5941 2.66669 16.8832 2.66667 16C2.66668 15.1167 3.37749 14.4059 4.79913 12.9842C5.65227 12.1311 6.04837 11.2857 6.04837 10.0694C6.04837 9.0142 5.84332 7.50952 6.66667 6.67925C7.49657 5.84237 9.00747 6.04835 10.0694 6.04835C11.2857 6.04835 12.1311 5.65227 12.9842 4.79916C14.4059 3.37749 15.1167 2.66667 16 2.66667C16.8833 2.66667 17.5941 3.37749 19.0157 4.79916M25.3207 25.3333H25.3333" stroke="var(--stroke-0, #E8E0D5)" stroke-linecap="round" stroke-linejoin="round"/>
<path id="Vector_2" d="M10.6667 13.7436C10.6667 13.7436 13.6667 13.3333 16 18.6667C16 18.6667 22.7451 5.33333 29.3333 2.66667" stroke="var(--stroke-0, #E8E0D5)" stroke-linecap="round" stroke-linejoin="round"/>
</g>
</svg>
