<svg preserveAspectRatio="none" width="100%" height="100%" overflow="visible" style="display: block;" viewBox="0 0 32 32" fill="none" xmlns="http://www.w3.org/2000/svg">
<g id="document-validation">
<path id="Vector" d="M19.5766 10.0203C19.5766 10.0203 20.1766 10.6203 20.7766 11.8203C20.7766 11.8203 22.6824 8.82028 24.3766 8.22027" stroke="var(--stroke-0, #E8E0D5)" stroke-linecap="round" stroke-linejoin="round"/>
<path id="Vector_2" d="M13.5938 4.02802C10.5957 3.90111 8.27936 4.24643 8.27936 4.24643C6.81673 4.35099 4.01375 5.1708 4.01378 9.95867C4.0138 14.7058 3.98277 20.5583 4.01378 22.8913C4.01378 24.3167 4.89652 27.6416 7.95192 27.8198C11.6657 28.0365 18.3553 28.0825 21.4246 27.8198C22.2462 27.7735 24.9816 27.1286 25.3278 24.1531C25.6865 21.0706 25.6151 18.9283 25.6151 18.4184" stroke="var(--stroke-0, #E8E0D5)" stroke-linecap="round" stroke-linejoin="round"/>
<path id="Vector_3" d="M28 10.0198C28 13.3329 25.3112 16.0187 21.9942 16.0187C18.6773 16.0187 15.9885 13.3329 15.9885 10.0198C15.9885 6.70681 18.6773 4.02105 21.9942 4.02105C25.3112 4.02105 28 6.70681 28 10.0198Z" stroke="var(--stroke-0, #E8E0D5)" stroke-linecap="round"/>
<path id="Vector_4" d="M9.97656 17.2185H14.7765" stroke="var(--stroke-0, #E8E0D5)" stroke-linecap="round"/>
<path id="Vector_5" d="M9.97656 22.0175H19.5765" stroke="var(--stroke-0, #E8E0D5)" stroke-linecap="round"/>
</g>
</svg>
