<svg preserveAspectRatio="none" width="100%" height="100%" overflow="visible" style="display: block;" viewBox="0 0 32 32" fill="none" xmlns="http://www.w3.org/2000/svg">
<g id="license ">
<path id="Vector" d="M12 28H24C25.0609 28 26.0783 27.5786 26.8284 26.8284C27.5786 26.0783 28 25.0609 28 24V22.6667H14.6667V25.3333C14.6667 26.0406 14.3857 26.7189 13.8856 27.219C13.3855 27.719 12.7072 28 12 28ZM12 28C11.2928 28 10.6145 27.719 10.1144 27.219C9.61429 26.7189 9.33334 26.0406 9.33334 25.3333V6.66667C9.33334 6.13925 9.17694 5.62368 8.88392 5.18515C8.5909 4.74661 8.17443 4.40482 7.68716 4.20299C7.19989 4.00115 6.66371 3.94835 6.14643 4.05124C5.62915 4.15413 5.15399 4.40811 4.78105 4.78105C4.40811 5.15399 4.15414 5.62914 4.05124 6.14643C3.94835 6.66371 4.00116 7.19989 4.20299 7.68716C4.40482 8.17443 4.74662 8.5909 5.18515 8.88392C5.62368 9.17694 6.13925 9.33333 6.66667 9.33333H9.33334M6.66667 4H21.3333C22.3942 4 23.4116 4.42143 24.1618 5.17157C24.9119 5.92172 25.3333 6.93913 25.3333 8V22.6667" stroke="var(--stroke-0, #E8E0D5)" stroke-linecap="round" stroke-linejoin="round"/>
<path id="Vector_2" d="M20 9.33333H14.6667" stroke="var(--stroke-0, #E8E0D5)" stroke-linecap="round" stroke-linejoin="round"/>
<path id="Vector_3" d="M20 14.6667H14.6667" stroke="var(--stroke-0, #E8E0D5)" stroke-linecap="round" stroke-linejoin="round"/>
</g>
</svg>
