<svg preserveAspectRatio="none" width="100%" height="100%" overflow="visible" style="display: block;" viewBox="0 0 32 32" fill="none" xmlns="http://www.w3.org/2000/svg">
<g id="Icon">
<path id="Vector" d="M16.1667 7.66667H16M16.3333 7.66667C16.3333 7.85076 16.1841 8 16 8C15.8159 8 15.6667 7.85076 15.6667 7.66667C15.6667 7.48257 15.8159 7.33333 16 7.33333C16.1841 7.33333 16.3333 7.48257 16.3333 7.66667Z" stroke="var(--stroke-0, #E8E0D5)" stroke-linecap="round" stroke-linejoin="round"/>
<path id="Vector_2" d="M6.66667 12V25.3333M12 12V25.3333" stroke="var(--stroke-0, #E8E0D5)" stroke-linecap="round" stroke-linejoin="round"/>
<path id="Vector_3" d="M20 12V25.3333M25.3333 12V25.3333" stroke="var(--stroke-0, #E8E0D5)" stroke-linecap="round" stroke-linejoin="round"/>
<path id="Vector_4" d="M28.4691 12H3.53096C3.05363 12 2.66667 11.6087 2.66667 11.126C2.66667 10.8301 2.81465 10.5544 3.05993 10.3931L11.6401 4.75313C13.7561 3.36216 14.8143 2.66667 16 2.66667C17.1857 2.66667 18.2439 3.36216 20.3599 4.75313L28.9401 10.3931C29.1853 10.5544 29.3333 10.8301 29.3333 11.126C29.3333 11.6087 28.9464 12 28.4691 12Z" stroke="var(--stroke-0, #E8E0D5)" stroke-linecap="round" stroke-linejoin="round"/>
<path id="Vector_5" d="M28.0529 27.0572L27.1359 26.1144C26.7609 25.7291 26.5735 25.5363 26.3352 25.4348C26.0968 25.3333 25.8317 25.3333 25.3016 25.3333H6.69843C6.16828 25.3333 5.9032 25.3333 5.66484 25.4348C5.42649 25.5363 5.23905 25.7291 4.86419 26.1144L3.94707 27.0572C3.00475 28.0259 2.5336 28.5103 2.69941 28.9217C2.86524 29.3333 3.53156 29.3333 4.86419 29.3333H27.1359C28.4684 29.3333 29.1348 29.3333 29.3005 28.9217C29.4664 28.5103 28.9952 28.0259 28.0529 27.0572Z" stroke="var(--stroke-0, #E8E0D5)" stroke-linecap="round" stroke-linejoin="round"/>
</g>
</svg>
