<svg preserveAspectRatio="none" width="100%" height="100%" overflow="visible" style="display: block;" viewBox="0 0 24 24" fill="none" xmlns="http://www.w3.org/2000/svg">
<g id="Check Mark">
<path id="Subtract" d="M3.98326 6.96517C7.32891 4.08138 12.1876 4.09544 15.5059 6.77575L14.7586 7.61776C11.8562 5.306 7.63151 5.30638 4.71809 7.81755C1.42381 10.6572 1.05513 15.6299 3.89478 18.9242C6.73443 22.2184 11.7071 22.5871 15.0014 19.7475C17.8917 17.2559 18.5295 13.1224 16.7244 9.92123L17.508 9.03925C19.809 12.7394 19.14 17.6657 15.7362 20.5999C11.9713 23.8452 6.28772 23.4238 3.04239 19.659C-0.202922 15.8941 0.218367 10.2105 3.98326 6.96517Z" fill="var(--fill-0, #4A7C6F)"/>
<path id="Check Mark_2" d="M3.68449 12.9584C3.68449 12.9584 7.13184 15.2586 8.71662 18.3867C8.71662 18.3867 14.9308 6.98144 22.3889 3.55794" stroke="var(--stroke-0, #4A7C6F)" stroke-width="1.125" stroke-linecap="round" stroke-linejoin="round"/>
</g>
</svg>
