<svg width="19" height="19" viewBox="0 0 19 19" fill="none" xmlns="http://www.w3.org/2000/svg">
<path d="M1.81802 17.182C0.5 15.864 0.5 13.7426 0.5 9.5C0.5 5.25736 0.5 3.13604 1.81802 1.81802C3.13604 0.5 5.25736 0.5 9.5 0.5C13.7426 0.5 15.864 0.5 17.182 1.81802C18.5 3.13604 18.5 5.25736 18.5 9.5C18.5 13.7426 18.5 15.864 17.182 17.182C15.864 18.5 13.7426 18.5 9.5 18.5C5.25736 18.5 3.13604 18.5 1.81802 17.182Z" stroke="#3D2B1F" stroke-linecap="round" stroke-linejoin="round"/>
<path d="M4.5 11.5L7.29289 8.7071C7.6834 8.3166 8.3166 8.3166 8.7071 8.7071L10.2929 10.2929C10.6834 10.6834 11.3166 10.6834 11.7071 10.2929L14.5 7.5" stroke="#3D2B1F" stroke-linecap="round" stroke-linejoin="round"/>
</svg>
