<svg width="24" height="24" viewBox="0 0 24 24" fill="none" xmlns="http://www.w3.org/2000/svg">
<g clip-path="url(#clip0_11055_888)">
<path d="M11.4019 4.0026L3.4019 12.0026C2.47364 12.9309 1.95215 14.1898 1.95215 15.5026C1.95215 16.8154 2.47364 18.0743 3.4019 19.0026C4.33015 19.9309 5.58914 20.4524 6.9019 20.4524C8.21465 20.4524 9.47364 19.9309 10.4019 19.0026L18.4019 11.0026C19.3302 10.0743 19.8516 8.81536 19.8516 7.5026C19.8516 6.18985 19.3302 4.93086 18.4019 4.0026C17.4736 3.07435 16.2147 2.55286 14.9019 2.55286C13.5891 2.55286 12.3302 3.07435 11.4019 4.0026Z" stroke="black" stroke-linecap="round" stroke-linejoin="round"/>
<path d="M7.40186 8.00262L14.4019 15.0026" stroke="black" stroke-linecap="round" stroke-linejoin="round"/>
</g>
<defs>
<clipPath id="clip0_11055_888">
<rect width="24" height="24" fill="white"/>
</clipPath>
</defs>
</svg>
