<svg width="145" height="145" viewBox="0 0 145 145" fill="none" xmlns="http://www.w3.org/2000/svg">
<path d="M26.8797 49.3685C26.8799 47.3495 27.9504 45.4819 29.6923 44.4609L69.0472 21.3915C70.8034 20.362 72.976 20.3494 74.7441 21.3584L115.251 44.474C117.025 45.4865 118.12 47.3728 118.12 49.4154V95.5528C118.12 97.6117 117.008 99.5101 115.211 100.516L74.704 123.208C72.9564 124.187 70.8228 124.175 69.0865 123.176L29.7316 100.53C27.9673 99.5149 26.879 97.6346 26.879 95.5991L26.8797 72.0733V49.3685Z" fill="#E8E0D5" stroke="#2D4A3E" stroke-width="0.621423"/>
<path d="M35.093 78.5661H52.0142C52.2931 78.5661 52.5481 78.4086 52.673 78.1593L60.3982 62.7391C60.6867 62.1632 61.5233 62.2086 61.7477 62.8124L71.4544 88.927C71.7044 89.5997 72.6708 89.5543 72.8567 88.8611L82.6469 52.3554C82.8354 51.6523 83.8209 51.6194 84.0559 52.3084L92.8434 78.0672C92.9451 78.3655 93.2255 78.5661 93.5407 78.5661H109.907" stroke="#2D4A3E" stroke-width="5" stroke-linecap="round"/>
</svg>
