<svg width="16" height="16" viewBox="0 0 17.002 17.001" fill="none" xmlns="http://www.w3.org/2000/svg">
  <path d="M9.88306 1.65534L11.2909 4.4943C11.4829 4.88949 11.9948 5.26855 12.4268 5.34114L14.9785 5.76859C16.6103 6.04282 16.9943 7.23647 15.8184 8.41399L13.8347 10.4142C13.4987 10.7529 13.3147 11.4062 13.4187 11.874L13.9867 14.35C14.4346 16.3098 13.4027 17.068 11.6829 16.0437L9.29114 14.6162C8.85922 14.3581 8.1473 14.3581 7.7073 14.6162L5.31559 16.0437C3.60378 17.068 2.5639 16.3017 3.01185 14.35L3.57979 11.874C3.68377 11.4062 3.4998 10.7529 3.16383 10.4142L1.18005 8.41399C0.0121815 7.23647 0.388141 6.04282 2.01996 5.76859L4.57167 5.34114C4.99563 5.26855 5.50757 4.88949 5.69955 4.4943L7.10738 1.65534C7.8753 0.114886 9.12314 0.114886 9.88306 1.65534Z" stroke="#F0B100" stroke-linecap="round" stroke-linejoin="round"/>
</svg>
