<svg width="24" height="24" viewBox="0 0 24 24" fill="none" xmlns="http://www.w3.org/2000/svg">
  <path d="M14.6825 7.51645C14.6825 7.51645 15.1325 7.96645 15.5825 8.86645C15.5825 8.86645 17.0119 6.61644 18.2825 6.16644" stroke="#E8E0D5" stroke-width="2" stroke-linecap="round" stroke-linejoin="round"/>
  <path d="M10.1954 3.02163C7.94675 2.92643 6.20952 3.18547 6.20952 3.18547C5.11255 3.2639 3.01031 3.87889 3.01033 7.47052C3.01035 11.0316 2.98708 15.4218 3.01033 17.172C3.01033 18.2413 3.67239 20.7354 5.96394 20.8691C8.7493 21.0316 13.7665 21.0662 16.0684 20.8691C16.6847 20.8343 18.7362 20.3506 18.9959 18.1185C19.2649 15.8061 19.2113 14.1991 19.2113 13.8166" stroke="#E8E0D5" stroke-width="2" stroke-linecap="round" stroke-linejoin="round"/>
  <path d="M21 7.51643C21 10.0017 18.9834 12.0165 16.4957 12.0165C14.008 12.0165 11.9913 10.0017 11.9913 7.51643C11.9913 5.03114 14.008 3.01642 16.4957 3.01642C18.9834 3.01642 21 5.03114 21 7.51643Z" stroke="#E8E0D5" stroke-width="2" stroke-linecap="round"/>
  <path d="M7.48242 12.9164H11.0824" stroke="#E8E0D5" stroke-width="2" stroke-linecap="round"/>
  <path d="M7.48242 16.5165H14.6824" stroke="#E8E0D5" stroke-width="2" stroke-linecap="round"/>
</svg>
