<svg width="109" height="32" viewBox="0 0 109 32" fill="none" xmlns="http://www.w3.org/2000/svg">
<path d="M0 8.30981C-6.63276e-07 7.68476 0.330711 7.10653 0.868994 6.79044L12.0209 0.241793C12.5636 -0.0768957 13.235 -0.080804 13.7813 0.231544L25.2602 6.79382C25.8084 7.10724 26.1469 7.69107 26.1469 8.32343L26.1469 21.4202C26.1469 22.0576 25.8031 22.6452 25.248 22.9567L13.769 29.3986C13.2289 29.7016 12.5695 29.6978 12.033 29.3885L0.881256 22.9603C0.336072 22.646 2.54773e-05 22.0639 2.38705e-05 21.4338L0 8.30981Z" fill="#E8E0D5"/>
<path d="M15.4073 8.87496C15.6833 8.10326 16.7769 8.06672 17.1036 8.81822L17.1337 8.896L19.5172 15.8951H23.8121C24.2027 15.8951 24.5194 16.2123 24.5194 16.6036C24.5193 16.9949 24.2027 17.3122 23.8121 17.3122H19.1602C18.7684 17.3121 18.42 17.0623 18.2935 16.6908L16.324 10.9078L13.9649 19.7211C13.7338 20.584 12.5329 20.6405 12.2221 19.803L9.86109 13.4402L8.17831 16.8057C8.02306 17.116 7.70623 17.3121 7.3597 17.3122H2.55004C2.15947 17.3122 1.84284 16.9949 1.84278 16.6036C1.84278 16.2123 2.15943 15.8951 2.55004 15.8951H7.05166L9.11046 11.7782L9.1461 11.7132C9.52084 11.0863 10.4545 11.1371 10.7593 11.8009L10.7874 11.8696L13.0034 17.8416L15.3824 8.95467L15.4073 8.87496Z" fill="#2D4A3E"/>
<path d="M35.0493 1.72657H38.1871L41.2759 9.84695L44.3974 1.72657H47.5025V13.3178H45.5414V3.69118H45.5087L41.995 13.3178H40.5568L37.0431 3.69118H37.0105V13.3178H35.0493V1.72657Z" fill="#E8E0D5"/>
<path d="M51.0289 10.0762C51.0943 10.6655 51.3231 11.1239 51.7153 11.4514C52.1075 11.7788 52.5815 11.9425 53.1371 11.9425C53.6274 11.9425 54.036 11.8443 54.3628 11.6478C54.7006 11.4405 54.9948 11.184 55.2453 10.8784L56.6508 11.9425C56.1932 12.5101 55.6811 12.9139 55.1146 13.154C54.5481 13.3942 53.9543 13.5142 53.3332 13.5142C52.7449 13.5142 52.1893 13.416 51.6663 13.2195C51.1433 13.0231 50.6912 12.7448 50.3098 12.3846C49.9285 12.0244 49.6234 11.5933 49.3946 11.0912C49.1767 10.5782 49.0678 10.0107 49.0678 9.38854C49.0678 8.76642 49.1767 8.20432 49.3946 7.70225C49.6234 7.18927 49.9285 6.75269 50.3098 6.39251C50.6912 6.03234 51.1433 5.75401 51.6663 5.55755C52.1893 5.36109 52.7449 5.26286 53.3332 5.26286C53.878 5.26286 54.3737 5.36109 54.8204 5.55755C55.278 5.7431 55.6648 6.01596 55.9808 6.37614C56.3076 6.73632 56.5582 7.18381 56.7325 7.71862C56.9177 8.24252 57.0104 8.84828 57.0104 9.53589V10.0762H51.0289ZM55.0492 8.6027C55.0383 8.02423 54.8586 7.57128 54.5099 7.24384C54.1613 6.90549 53.6764 6.73632 53.0554 6.73632C52.4671 6.73632 51.9986 6.90549 51.6499 7.24384C51.3122 7.58219 51.1052 8.03514 51.0289 8.6027H55.0492Z" fill="#E8E0D5"/>
<path d="M64.5643 12.139H64.5316C64.2483 12.6192 63.867 12.9685 63.3876 13.1868C62.9082 13.4051 62.3907 13.5142 61.835 13.5142C61.2249 13.5142 60.6801 13.4105 60.2008 13.2032C59.7323 12.9849 59.3291 12.6902 58.9914 12.3191C58.6536 11.948 58.3976 11.5114 58.2233 11.0093C58.049 10.5073 57.9618 9.96701 57.9618 9.38854C57.9618 8.81007 58.0544 8.26981 58.2396 7.76774C58.4249 7.26567 58.6809 6.82909 59.0077 6.458C59.3455 6.08691 59.7486 5.79767 60.2171 5.5903C60.6856 5.37201 61.1977 5.26286 61.7533 5.26286C62.1237 5.26286 62.4506 5.30106 62.7339 5.37747C63.0172 5.45387 63.2677 5.5521 63.4856 5.67216C63.7035 5.79222 63.8888 5.92319 64.0413 6.06508C64.1938 6.19605 64.3191 6.32703 64.4172 6.458H64.4662V0.940723H66.4273V13.3178H64.5643V12.139ZM59.9229 9.38854C59.9229 9.69415 59.972 9.98884 60.07 10.2726C60.179 10.5564 60.3315 10.8074 60.5276 11.0257C60.7346 11.244 60.9798 11.4186 61.263 11.5496C61.5463 11.6806 61.8677 11.7461 62.2273 11.7461C62.5868 11.7461 62.9082 11.6806 63.1915 11.5496C63.4747 11.4186 63.7144 11.244 63.9106 11.0257C64.1176 10.8074 64.2701 10.5564 64.3681 10.2726C64.4771 9.98884 64.5316 9.69415 64.5316 9.38854C64.5316 9.08294 64.4771 8.78825 64.3681 8.50447C64.2701 8.22069 64.1176 7.96966 63.9106 7.75137C63.7144 7.53308 63.4747 7.35845 63.1915 7.22747C62.9082 7.0965 62.5868 7.03101 62.2273 7.03101C61.8677 7.03101 61.5463 7.0965 61.263 7.22747C60.9798 7.35845 60.7346 7.53308 60.5276 7.75137C60.3315 7.96966 60.179 8.22069 60.07 8.50447C59.972 8.78825 59.9229 9.08294 59.9229 9.38854Z" fill="#E8E0D5"/>
<path d="M68.2064 5.45932H70.1675V13.3178H68.2064V5.45932ZM67.9286 2.79073C67.9286 2.47421 68.043 2.20135 68.2718 1.97214C68.5115 1.73202 68.8111 1.61196 69.1706 1.61196C69.5301 1.61196 69.8298 1.72657 70.0695 1.95577C70.32 2.17406 70.4453 2.45238 70.4453 2.79073C70.4453 3.12908 70.32 3.41286 70.0695 3.64206C69.8298 3.86035 69.5301 3.9695 69.1706 3.9695C68.8111 3.9695 68.5115 3.85489 68.2718 3.62569C68.043 3.38557 67.9286 3.10725 67.9286 2.79073Z" fill="#E8E0D5"/>
<path d="M77.2891 7.81685C77.0603 7.57674 76.8206 7.38573 76.57 7.24384C76.3194 7.10196 76.0634 7.03101 75.8019 7.03101C75.4424 7.03101 75.121 7.0965 74.8377 7.22747C74.5544 7.35845 74.3093 7.53308 74.1023 7.75137C73.9062 7.96966 73.7536 8.22069 73.6447 8.50447C73.5466 8.78825 73.4976 9.08294 73.4976 9.38854C73.4976 9.69415 73.5466 9.98884 73.6447 10.2726C73.7536 10.5564 73.9062 10.8074 74.1023 11.0257C74.3093 11.244 74.5544 11.4186 74.8377 11.5496C75.121 11.6806 75.4424 11.7461 75.8019 11.7461C76.107 11.7461 76.3903 11.686 76.6517 11.566C76.9132 11.435 77.1366 11.2495 77.3218 11.0093L78.6292 12.4173C78.4331 12.6138 78.2043 12.783 77.9428 12.9248C77.6922 13.0667 77.4362 13.1813 77.1747 13.2686C76.9132 13.356 76.6626 13.416 76.4229 13.4487C76.1832 13.4924 75.9762 13.5142 75.8019 13.5142C75.2136 13.5142 74.6579 13.416 74.135 13.2195C73.612 13.0231 73.1598 12.7448 72.7785 12.3846C72.3972 12.0244 72.0921 11.5933 71.8633 11.0912C71.6454 10.5782 71.5365 10.0107 71.5365 9.38854C71.5365 8.76642 71.6454 8.20432 71.8633 7.70225C72.0921 7.18927 72.3972 6.75269 72.7785 6.39251C73.1598 6.03234 73.612 5.75401 74.135 5.55755C74.6579 5.36109 75.2136 5.26286 75.8019 5.26286C76.3031 5.26286 76.8043 5.36109 77.3054 5.55755C77.8175 5.7431 78.2642 6.04325 78.6455 6.458L77.2891 7.81685Z" fill="#E8E0D5"/>
<path d="M84.2253 12.2372H84.1763C83.893 12.6847 83.5335 13.0122 83.0977 13.2195C82.6618 13.416 82.1825 13.5142 81.6595 13.5142C81.3 13.5142 80.9459 13.4651 80.5972 13.3669C80.2595 13.2686 79.9544 13.1213 79.682 12.9248C79.4205 12.7284 79.2081 12.4828 79.0447 12.1881C78.8812 11.8934 78.7995 11.5496 78.7995 11.1567C78.7995 10.731 78.8758 10.3708 79.0283 10.0762C79.1809 9.77055 79.3824 9.51952 79.633 9.32305C79.8945 9.11568 80.1941 8.95196 80.5319 8.8319C80.8696 8.71184 81.2182 8.62453 81.5778 8.56995C81.9482 8.50447 82.3187 8.46627 82.6891 8.45535C83.0595 8.43352 83.4082 8.42261 83.735 8.42261H84.2253V8.20978C84.2253 7.71862 84.0564 7.35299 83.7187 7.11287C83.3809 6.86184 82.9506 6.73632 82.4276 6.73632C82.0136 6.73632 81.6268 6.81272 81.2673 6.96552C80.9077 7.10741 80.5972 7.30387 80.3357 7.55491L79.3061 6.52349C79.742 6.07599 80.2486 5.75401 80.826 5.55755C81.4144 5.36109 82.019 5.26286 82.6401 5.26286C83.1957 5.26286 83.6642 5.32835 84.0455 5.45932C84.4269 5.57938 84.7428 5.73764 84.9934 5.9341C85.244 6.13057 85.4347 6.35977 85.5654 6.62172C85.707 6.87275 85.8051 7.12924 85.8596 7.39119C85.9249 7.65314 85.9631 7.90963 85.974 8.16066C85.9849 8.40078 85.9903 8.61361 85.9903 8.79916V13.3178H84.2253V12.2372ZM84.1109 9.79784H83.7023C83.43 9.79784 83.1249 9.80875 82.7871 9.83058C82.4494 9.85241 82.128 9.90698 81.8229 9.9943C81.5288 10.0707 81.2782 10.1908 81.0712 10.3545C80.8642 10.5073 80.7607 10.7256 80.7607 11.0093C80.7607 11.1949 80.7988 11.3532 80.875 11.4841C80.9622 11.6042 81.0712 11.7079 81.2019 11.7952C81.3326 11.8825 81.4797 11.948 81.6432 11.9916C81.8066 12.0244 81.97 12.0408 82.1334 12.0408C82.8089 12.0408 83.3047 11.8825 83.6206 11.566C83.9475 11.2385 84.1109 10.7965 84.1109 10.2399V9.79784Z" fill="#E8E0D5"/>
<path d="M87.6427 0.940723H89.6038V13.3178H87.6427V0.940723Z" fill="#E8E0D5"/>
<path d="M35.0547 16.4171H38.2052L41.3064 24.5702L44.4404 16.4171H47.558V28.055H45.589V18.3896H45.5562L42.0283 28.055H40.5844L37.0566 18.3896H37.0237V28.055H35.0547V16.4171Z" fill="#E8E0D5"/>
<path d="M54.6101 26.9701H54.5608C54.2764 27.4194 53.9154 27.7481 53.4779 27.9563C53.0403 28.1536 52.559 28.2522 52.0339 28.2522C51.6729 28.2522 51.3174 28.2029 50.9674 28.1043C50.6283 28.0057 50.322 27.8577 50.0485 27.6605C49.786 27.4632 49.5727 27.2166 49.4086 26.9208C49.2445 26.6249 49.1624 26.2797 49.1624 25.8852C49.1624 25.4578 49.239 25.0962 49.3922 24.8003C49.5453 24.4935 49.7477 24.2414 49.9993 24.0442C50.2618 23.836 50.5626 23.6716 50.9017 23.551C51.2409 23.4305 51.5909 23.3428 51.9519 23.288C52.3238 23.2223 52.6957 23.1839 53.0677 23.173C53.4396 23.1511 53.7896 23.1401 54.1178 23.1401H54.6101V22.9264C54.6101 22.4333 54.4405 22.0662 54.1014 21.8251C53.7623 21.5731 53.3302 21.447 52.8051 21.447C52.3895 21.447 52.0011 21.5237 51.6401 21.6772C51.2791 21.8196 50.9674 22.0169 50.7048 22.2689L49.6711 21.2333C50.1087 20.784 50.6173 20.4608 51.1971 20.2635C51.7878 20.0663 52.3949 19.9676 53.0184 19.9676C53.5763 19.9676 54.0467 20.0334 54.4296 20.1649C54.8124 20.2854 55.1297 20.4443 55.3813 20.6416C55.6329 20.8388 55.8243 21.069 55.9556 21.332C56.0978 21.584 56.1962 21.8415 56.2509 22.1045C56.3166 22.3675 56.3548 22.6251 56.3658 22.8771C56.3767 23.1182 56.3822 23.3319 56.3822 23.5182V28.055H54.6101V26.9701ZM54.4952 24.5209H54.085C53.8115 24.5209 53.5052 24.5318 53.1661 24.5537C52.827 24.5757 52.5043 24.6305 52.198 24.7181C51.9027 24.7948 51.6511 24.9154 51.4432 25.0798C51.2354 25.2332 51.1315 25.4523 51.1315 25.7373C51.1315 25.9235 51.1698 26.0824 51.2463 26.2139C51.3338 26.3345 51.4432 26.4386 51.5745 26.5263C51.7058 26.6139 51.8534 26.6797 52.0175 26.7235C52.1816 26.7564 52.3457 26.7728 52.5098 26.7728C53.188 26.7728 53.6857 26.6139 54.0029 26.2961C54.3311 25.9674 54.4952 25.5236 54.4952 24.9647V24.5209Z" fill="#E8E0D5"/>
<path d="M58.1725 20.1649H60.1415V21.4142H60.1743C60.3931 20.9539 60.7049 20.5977 61.1096 20.3457C61.5144 20.0937 61.9793 19.9676 62.5043 19.9676C62.6247 19.9676 62.7395 19.9786 62.8489 20.0005C62.9693 20.0224 63.0896 20.0498 63.2099 20.0827V21.9895C63.0458 21.9456 62.8817 21.9128 62.7177 21.8908C62.5645 21.858 62.4114 21.8415 62.2582 21.8415C61.7988 21.8415 61.4269 21.9292 61.1424 22.1045C60.869 22.2689 60.6557 22.4607 60.5025 22.6799C60.3603 22.899 60.2619 23.1182 60.2072 23.3374C60.1634 23.5565 60.1415 23.7209 60.1415 23.8305V28.055H58.1725V20.1649Z" fill="#E8E0D5"/>
<path d="M64.2219 15.6281H66.1909V23.436L69.2264 20.1649H71.7534L68.3732 23.7483L71.9667 28.055H69.3577L66.2237 24.0277H66.1909V28.055H64.2219V15.6281Z" fill="#E8E0D5"/>
<path d="M74.2821 24.8003C74.3477 25.3921 74.5774 25.8523 74.9712 26.1811C75.365 26.5098 75.8409 26.6742 76.3988 26.6742C76.891 26.6742 77.3012 26.5756 77.6294 26.3783C77.9685 26.1701 78.2639 25.9126 78.5155 25.6058L79.9266 26.6742C79.4671 27.244 78.953 27.6495 78.3842 27.8906C77.8154 28.1317 77.2192 28.2522 76.5957 28.2522C76.005 28.2522 75.4471 28.1536 74.922 27.9563C74.3969 27.7591 73.9429 27.4796 73.5601 27.118C73.1772 26.7564 72.8709 26.3235 72.6412 25.8194C72.4224 25.3044 72.313 24.7346 72.313 24.1099C72.313 23.4853 72.4224 22.9209 72.6412 22.4168C72.8709 21.9018 73.1772 21.4635 73.5601 21.1018C73.9429 20.7402 74.3969 20.4608 74.922 20.2635C75.4471 20.0663 76.005 19.9676 76.5957 19.9676C77.1426 19.9676 77.6403 20.0663 78.0888 20.2635C78.5483 20.4498 78.9366 20.7238 79.2538 21.0854C79.582 21.447 79.8336 21.8963 80.0086 22.4333C80.1946 22.9593 80.2876 23.5675 80.2876 24.2579V24.8003H74.2821ZM78.3186 23.3209C78.3076 22.7401 78.1271 22.2853 77.7771 21.9566C77.427 21.6169 76.9402 21.447 76.3167 21.447C75.726 21.447 75.2556 21.6169 74.9056 21.9566C74.5665 22.2963 74.3586 22.7511 74.2821 23.3209H78.3186Z" fill="#E8E0D5"/>
<path d="M80.8819 21.8415V20.1649H82.5063V17.8801H84.4753V20.1649H86.6412V21.8415H84.4753V25.2934C84.4753 25.6879 84.5464 26.0003 84.6886 26.2304C84.8418 26.4605 85.1371 26.5756 85.5747 26.5756C85.7497 26.5756 85.9411 26.5591 86.149 26.5263C86.3568 26.4824 86.5209 26.4167 86.6412 26.329V27.9892C86.4334 28.0878 86.1763 28.1536 85.87 28.1865C85.5747 28.2303 85.3122 28.2522 85.0824 28.2522C84.5574 28.2522 84.1253 28.1919 83.7862 28.0714C83.458 27.9618 83.1955 27.792 82.9986 27.5618C82.8126 27.3207 82.6813 27.0249 82.6048 26.6742C82.5391 26.3235 82.5063 25.9181 82.5063 25.4578V21.8415H80.8819Z" fill="#E8E0D5"/>
<path d="M87.8989 20.1649H89.868V28.055H87.8989V20.1649ZM87.62 17.4856C87.62 17.1678 87.7348 16.8938 87.9646 16.6637C88.2052 16.4226 88.506 16.302 88.867 16.302C89.228 16.302 89.5288 16.4171 89.7695 16.6472C90.0211 16.8664 90.1469 17.1458 90.1469 17.4856C90.1469 17.8253 90.0211 18.1102 89.7695 18.3403C89.5288 18.5595 89.228 18.6691 88.867 18.6691C88.506 18.6691 88.2052 18.554 87.9646 18.3239C87.7348 18.0828 87.62 17.8033 87.62 17.4856Z" fill="#E8E0D5"/>
<path d="M91.8003 20.1649H93.6709V21.4306H93.7037C93.8897 21.0361 94.1741 20.6964 94.5569 20.4115C94.9398 20.1156 95.4594 19.9676 96.1157 19.9676C96.6408 19.9676 97.0838 20.0553 97.4448 20.2306C97.8168 20.406 98.1176 20.6361 98.3473 20.921C98.577 21.2059 98.7411 21.5347 98.8396 21.9073C98.938 22.2799 98.9872 22.6689 98.9872 23.0744V28.055H97.0182V24.0606C97.0182 23.8414 97.0073 23.6004 96.9854 23.3374C96.9635 23.0634 96.9034 22.8114 96.8049 22.5812C96.7174 22.3401 96.5752 22.1429 96.3783 21.9895C96.1814 21.8251 95.9134 21.7429 95.5743 21.7429C95.2461 21.7429 94.9672 21.7977 94.7374 21.9073C94.5187 22.0169 94.3327 22.1648 94.1795 22.3511C94.0373 22.5374 93.9334 22.7511 93.8678 22.9922C93.8021 23.2333 93.7693 23.4853 93.7693 23.7483V28.055H91.8003V20.1649Z" fill="#E8E0D5"/>
<path d="M109 20.1649V27.3481C109 28.0604 108.912 28.7015 108.737 29.2713C108.562 29.8521 108.289 30.3398 107.917 30.7343C107.556 31.1398 107.097 31.4521 106.539 31.6712C105.981 31.8904 105.319 32 104.553 32C103.82 32 103.126 31.9069 102.469 31.7206C101.813 31.5343 101.206 31.1946 100.648 30.7014L101.829 29.0905C102.223 29.4522 102.634 29.7316 103.06 29.9289C103.487 30.1261 103.979 30.2247 104.537 30.2247C105.007 30.2247 105.401 30.159 105.718 30.0275C106.046 29.896 106.304 29.7152 106.49 29.485C106.686 29.2549 106.823 28.9755 106.9 28.6467C106.987 28.3289 107.031 27.9728 107.031 27.5783V27.003H106.998C106.714 27.3865 106.336 27.6769 105.866 27.8741C105.396 28.0604 104.914 28.1536 104.422 28.1536C103.831 28.1536 103.295 28.0495 102.814 27.8413C102.333 27.6221 101.917 27.3317 101.567 26.9701C101.228 26.6084 100.965 26.1811 100.779 25.6879C100.593 25.1948 100.5 24.6688 100.5 24.1099C100.5 23.5291 100.588 22.9867 100.763 22.4826C100.938 21.9785 101.195 21.5402 101.534 21.1676C101.873 20.795 102.278 20.5046 102.748 20.2964C103.23 20.0772 103.777 19.9676 104.389 19.9676C104.947 19.9676 105.467 20.0772 105.948 20.2964C106.429 20.5156 106.812 20.8662 107.097 21.3484H107.129V20.1649H109ZM104.799 21.7429C104.449 21.7429 104.132 21.8032 103.848 21.9237C103.563 22.0333 103.317 22.1922 103.109 22.4004C102.912 22.5977 102.754 22.8442 102.634 23.1401C102.524 23.425 102.469 23.7428 102.469 24.0935C102.469 24.4113 102.524 24.7072 102.634 24.9811C102.754 25.2551 102.918 25.4962 103.126 25.7044C103.334 25.9126 103.58 26.077 103.864 26.1975C104.149 26.3181 104.455 26.3783 104.783 26.3783C105.144 26.3783 105.467 26.3181 105.751 26.1975C106.046 26.077 106.293 25.9181 106.49 25.7208C106.697 25.5126 106.856 25.266 106.965 24.9811C107.075 24.6962 107.129 24.3894 107.129 24.0606C107.129 23.3702 106.922 22.8114 106.506 22.384C106.09 21.9566 105.521 21.7429 104.799 21.7429Z" fill="#E8E0D5"/>
</svg>
