<svg width="109" height="32" viewBox="0 0 109 32" fill="none" xmlns="http://www.w3.org/2000/svg">
<path d="M0 9.22593C-7.69092e-07 8.60514 0.32432 8.03086 0.8522 7.71692L12.2204 0.95617C12.7526 0.639656 13.411 0.635773 13.9468 0.945991L25.6473 7.72028C26.185 8.03157 26.5169 8.61141 26.5169 9.23946L26.5169 22.7606C26.5169 23.3936 26.1798 23.9772 25.6354 24.2866L13.9347 30.9366C13.4051 31.2376 12.7584 31.2338 12.2322 30.9266L0.864228 24.2901C0.329581 23.978 2.95545e-05 23.3999 2.78406e-05 22.7741L0 9.22593Z" fill="#2D4A3E"/>
<path d="M15.6606 9.83125C15.9409 9.03745 17.0517 8.99986 17.3836 9.77289L17.4142 9.85288L19.835 17.0524H24.1973C24.5941 17.0524 24.9157 17.3787 24.9157 17.7813C24.9156 18.1837 24.594 18.5101 24.1973 18.5101H19.4724C19.0745 18.5101 18.7206 18.253 18.5922 17.8709L16.5917 11.9223L14.1956 20.988C13.9608 21.8756 12.7412 21.9337 12.4255 21.0723L10.0274 14.5272L8.31824 17.9891C8.16055 18.3083 7.83876 18.51 7.48679 18.5101H2.60167C2.20498 18.5101 1.88338 18.1837 1.88332 17.7813C1.88332 17.3787 2.20494 17.0524 2.60167 17.0524H7.17391L9.26501 12.8177L9.30121 12.7508C9.68183 12.1059 10.6302 12.1581 10.9397 12.841L10.9683 12.9116L13.2191 19.0547L15.6354 9.91324L15.6606 9.83125Z" fill="#E8E0D5"/>
<path d="M109 19.826V27.2149C109 27.9476 108.911 28.607 108.733 29.1932C108.556 29.7906 108.278 30.2923 107.9 30.6981C107.533 31.1151 107.067 31.4364 106.5 31.6618C105.933 31.8873 105.261 32 104.484 32C103.739 32 103.034 31.9042 102.367 31.7126C101.7 31.5209 101.084 31.1715 100.517 30.6642L101.717 29.0072C102.117 29.3792 102.534 29.6666 102.967 29.8695C103.4 30.0724 103.9 30.1739 104.467 30.1739C104.945 30.1739 105.345 30.1063 105.667 29.971C106 29.8357 106.261 29.6497 106.45 29.413C106.65 29.1763 106.789 28.8889 106.867 28.5507C106.956 28.2238 107 27.8574 107 27.4516V26.8598H106.967C106.678 27.2544 106.295 27.5531 105.817 27.756C105.339 27.9476 104.85 28.0434 104.35 28.0434C103.75 28.0434 103.206 27.9364 102.717 27.7222C102.228 27.4967 101.806 27.198 101.45 26.826C101.106 26.454 100.839 26.0144 100.65 25.5072C100.461 24.9999 100.367 24.4589 100.367 23.884C100.367 23.2865 100.456 22.7286 100.634 22.21C100.811 21.6915 101.073 21.2406 101.417 20.8574C101.761 20.4741 102.173 20.1754 102.65 19.9612C103.139 19.7358 103.695 19.6231 104.317 19.6231C104.884 19.6231 105.411 19.7358 105.9 19.9612C106.389 20.1867 106.778 20.5474 107.067 21.0434H107.1V19.826H109ZM104.734 21.4492C104.378 21.4492 104.056 21.5112 103.767 21.6352C103.478 21.7479 103.228 21.9113 103.017 22.1255C102.817 22.3284 102.656 22.582 102.534 22.8864C102.423 23.1795 102.367 23.5064 102.367 23.8671C102.367 24.194 102.423 24.4983 102.534 24.7801C102.656 25.0619 102.823 25.3099 103.034 25.5241C103.245 25.7383 103.495 25.9073 103.784 26.0313C104.072 26.1553 104.384 26.2173 104.717 26.2173C105.084 26.2173 105.411 26.1553 105.7 26.0313C106 25.9073 106.25 25.7439 106.45 25.541C106.661 25.3268 106.822 25.0732 106.933 24.7801C107.045 24.487 107.1 24.1714 107.1 23.8332C107.1 23.1231 106.889 22.5482 106.467 22.1086C106.045 21.669 105.467 21.4492 104.734 21.4492Z" fill="#2D4A3E"/>
<path d="M91.5305 19.826H93.4304V21.1279H93.4637C93.6526 20.7221 93.9415 20.3727 94.3303 20.0796C94.7192 19.7752 95.247 19.6231 95.9136 19.6231C96.4469 19.6231 96.8969 19.7132 97.2635 19.8936C97.6413 20.074 97.9469 20.3107 98.1802 20.6037C98.4135 20.8968 98.5802 21.235 98.6802 21.6182C98.7801 22.0015 98.8301 22.4017 98.8301 22.8187V27.942H96.8302V23.8332C96.8302 23.6078 96.8191 23.3598 96.7969 23.0893C96.7747 22.8075 96.7136 22.5482 96.6136 22.3115C96.5247 22.0635 96.3803 21.8606 96.1803 21.7028C95.9803 21.5337 95.7081 21.4492 95.3636 21.4492C95.0303 21.4492 94.747 21.5055 94.5137 21.6182C94.2915 21.731 94.1026 21.8831 93.947 22.0748C93.8026 22.2664 93.697 22.4862 93.6304 22.7342C93.5637 22.9822 93.5304 23.2415 93.5304 23.512V27.942H91.5305V19.826Z" fill="#2D4A3E"/>
<path d="M87.5679 19.826H89.5678V27.942H87.5679V19.826ZM87.2846 17.0699C87.2846 16.743 87.4012 16.4612 87.6346 16.2245C87.879 15.9765 88.1845 15.8525 88.5512 15.8525C88.9178 15.8525 89.2234 15.9708 89.4678 16.2076C89.7233 16.433 89.8511 16.7205 89.8511 17.0699C89.8511 17.4193 89.7233 17.7124 89.4678 17.9491C89.2234 18.1746 88.9178 18.2873 88.5512 18.2873C88.1845 18.2873 87.879 18.1689 87.6346 17.9322C87.4012 17.6842 87.2846 17.3968 87.2846 17.0699Z" fill="#2D4A3E"/>
<path d="M80.4407 21.5506V19.826H82.0907V17.4757H84.0906V19.826H86.2905V21.5506H84.0906V25.1014C84.0906 25.5072 84.1628 25.8284 84.3072 26.0652C84.4628 26.3019 84.7628 26.4202 85.2072 26.4202C85.385 26.4202 85.5794 26.4033 85.7905 26.3695C86.0016 26.3244 86.1683 26.2568 86.2905 26.1666V27.8743C86.0794 27.9758 85.8183 28.0434 85.5072 28.0773C85.2072 28.1223 84.9405 28.1449 84.7072 28.1449C84.1739 28.1449 83.735 28.0829 83.3906 27.9589C83.0573 27.8462 82.7906 27.6715 82.5906 27.4347C82.4018 27.1867 82.2684 26.8824 82.1907 26.5217C82.124 26.161 82.0907 25.7439 82.0907 25.2705V21.5506H80.4407Z" fill="#2D4A3E"/>
<path d="M73.7374 24.5941C73.8041 25.2028 74.0374 25.6763 74.4374 26.0144C74.8373 26.3526 75.3207 26.5217 75.8873 26.5217C76.3873 26.5217 76.8039 26.4202 77.1372 26.2173C77.4817 26.0032 77.7817 25.7383 78.0372 25.4226L79.4705 26.5217C79.0038 27.1078 78.4816 27.5249 77.9039 27.7729C77.3261 28.0209 76.7206 28.1449 76.0873 28.1449C75.4873 28.1449 74.9207 28.0434 74.3874 27.8405C73.854 27.6376 73.393 27.3502 73.0041 26.9782C72.6152 26.6062 72.3041 26.161 72.0708 25.6424C71.8486 25.1126 71.7375 24.5265 71.7375 23.884C71.7375 23.2415 71.8486 22.6609 72.0708 22.1424C72.3041 21.6126 72.6152 21.1617 73.0041 20.7897C73.393 20.4178 73.854 20.1303 74.3874 19.9274C74.9207 19.7245 75.4873 19.6231 76.0873 19.6231C76.6428 19.6231 77.1483 19.7245 77.6039 19.9274C78.0705 20.119 78.465 20.4008 78.7872 20.7728C79.1205 21.1448 79.376 21.607 79.5538 22.1593C79.7427 22.7004 79.8371 23.326 79.8371 24.0361V24.5941H73.7374ZM77.8372 23.0724C77.8261 22.4749 77.6428 22.0071 77.2872 21.669C76.9317 21.3195 76.4373 21.1448 75.804 21.1448C75.204 21.1448 74.7262 21.3195 74.3707 21.669C74.0263 22.0184 73.8152 22.4862 73.7374 23.0724H77.8372Z" fill="#2D4A3E"/>
<path d="M63.5194 15.1592H65.5193V23.1907L68.6025 19.826H71.169L67.7358 23.512L71.3857 27.942H68.7358L65.5526 23.7994H65.5193V27.942H63.5194V15.1592Z" fill="#2D4A3E"/>
<path d="M57.3751 19.826H59.375V21.111H59.4084C59.6306 20.6376 59.9472 20.2712 60.3583 20.012C60.7694 19.7527 61.2416 19.6231 61.7749 19.6231C61.8971 19.6231 62.0138 19.6343 62.1249 19.6569C62.2471 19.6794 62.3693 19.7076 62.4915 19.7414V21.7028C62.3249 21.6577 62.1582 21.6239 61.9916 21.6013C61.836 21.5675 61.6805 21.5506 61.5249 21.5506C61.0583 21.5506 60.6805 21.6408 60.3916 21.8211C60.1139 21.9902 59.8972 22.1875 59.7417 22.4129C59.5972 22.6384 59.4972 22.8638 59.4417 23.0893C59.3972 23.3147 59.375 23.4838 59.375 23.5965V27.942H57.3751V19.826Z" fill="#2D4A3E"/>
<path d="M53.7568 26.826H53.7068C53.4179 27.2882 53.0513 27.6264 52.6068 27.8405C52.1624 28.0434 51.6736 28.1449 51.1402 28.1449C50.7736 28.1449 50.4125 28.0942 50.057 27.9927C49.7125 27.8913 49.4014 27.7391 49.1237 27.5362C48.857 27.3333 48.6404 27.0797 48.4737 26.7753C48.307 26.471 48.2237 26.1159 48.2237 25.7101C48.2237 25.2705 48.3015 24.8985 48.457 24.5941C48.6126 24.2785 48.8181 24.0192 49.0737 23.8163C49.3403 23.6022 49.6459 23.4331 49.9903 23.3091C50.3347 23.1851 50.6903 23.0949 51.0569 23.0386C51.4347 22.9709 51.8124 22.9315 52.1902 22.9202C52.568 22.8977 52.9235 22.8864 53.2568 22.8864H53.7568V22.6666C53.7568 22.1593 53.5846 21.7817 53.2401 21.5337C52.8957 21.2744 52.4568 21.1448 51.9235 21.1448C51.5013 21.1448 51.1069 21.2237 50.7403 21.3815C50.3736 21.5281 50.057 21.731 49.7903 21.9902L48.7403 20.925C49.1848 20.4628 49.7014 20.1303 50.2903 19.9274C50.8902 19.7245 51.5069 19.6231 52.1402 19.6231C52.7068 19.6231 53.1846 19.6907 53.5735 19.826C53.9623 19.95 54.2845 20.1134 54.5401 20.3163C54.7956 20.5192 54.9901 20.7559 55.1234 21.0265C55.2678 21.2857 55.3678 21.5506 55.4234 21.8211C55.49 22.0917 55.5289 22.3566 55.54 22.6158C55.5512 22.8638 55.5567 23.0836 55.5567 23.2753V27.942H53.7568V26.826ZM53.6401 24.3067H53.2235C52.9457 24.3067 52.6346 24.318 52.2902 24.3405C51.9458 24.363 51.618 24.4194 51.3069 24.5096C51.0069 24.5885 50.7514 24.7125 50.5403 24.8816C50.3292 25.0394 50.2236 25.2648 50.2236 25.5579C50.2236 25.7495 50.2625 25.913 50.3403 26.0482C50.4292 26.1722 50.5403 26.2793 50.6736 26.3695C50.8069 26.4597 50.9569 26.5273 51.1236 26.5724C51.2902 26.6062 51.4569 26.6231 51.6235 26.6231C52.3124 26.6231 52.8179 26.4597 53.1402 26.1328C53.4735 25.7946 53.6401 25.3381 53.6401 24.7632V24.3067Z" fill="#2D4A3E"/>
<path d="M33.8947 15.9708H37.0945L40.2444 24.3574L43.4276 15.9708H46.5941V27.942H44.5942V17.9999H44.5608L40.9777 27.942H39.5111L35.9279 17.9999H35.8946V27.942H33.8947V15.9708Z" fill="#2D4A3E"/>
<path d="M87.5282 0H89.5281V12.7827H87.5282V0Z" fill="#2D4A3E"/>
<path d="M84.0432 11.6668H83.9932C83.7043 12.129 83.3377 12.4671 82.8932 12.6813C82.4488 12.8842 81.9599 12.9856 81.4266 12.9856C81.06 12.9856 80.6989 12.9349 80.3434 12.8335C79.9989 12.732 79.6878 12.5798 79.4101 12.3769C79.1434 12.174 78.9267 11.9204 78.7601 11.6161C78.5934 11.3117 78.5101 10.9566 78.5101 10.5508C78.5101 10.1112 78.5879 9.73923 78.7434 9.43488C78.899 9.11926 79.1045 8.86 79.3601 8.6571C79.6267 8.44292 79.9323 8.27384 80.2767 8.14984C80.6211 8.02585 80.9767 7.93567 81.3433 7.87931C81.7211 7.81168 82.0988 7.77222 82.4766 7.76095C82.8543 7.73841 83.2099 7.72713 83.5432 7.72713H84.0432V7.50732C84.0432 7.00007 83.871 6.62245 83.5265 6.37446C83.1821 6.1152 82.7432 5.98557 82.2099 5.98557C81.7877 5.98557 81.3933 6.06448 81.0266 6.22229C80.66 6.36883 80.3433 6.57173 80.0767 6.83099L79.0267 5.76576C79.4712 5.3036 79.9878 4.97107 80.5767 4.76817C81.1766 4.56526 81.7933 4.46381 82.4266 4.46381C82.9932 4.46381 83.471 4.53145 83.8599 4.66671C84.2487 4.79071 84.5709 4.95416 84.8265 5.15706C85.082 5.35996 85.2765 5.59668 85.4098 5.86721C85.5542 6.12647 85.6542 6.39137 85.7098 6.66191C85.7764 6.93244 85.8153 7.19734 85.8264 7.4566C85.8375 7.70459 85.8431 7.9244 85.8431 8.11603V12.7827H84.0432V11.6668ZM83.9265 9.14744H83.5099C83.2321 9.14744 82.921 9.15871 82.5766 9.18125C82.2322 9.2038 81.9044 9.26016 81.5933 9.35034C81.2933 9.42924 81.0378 9.55324 80.8267 9.72232C80.6156 9.88013 80.51 10.1056 80.51 10.3987C80.51 10.5903 80.5489 10.7537 80.6267 10.889C80.7156 11.013 80.8267 11.1201 80.96 11.2103C81.0933 11.3004 81.2433 11.3681 81.41 11.4132C81.5766 11.447 81.7433 11.4639 81.9099 11.4639C82.5988 11.4639 83.1043 11.3004 83.4265 10.9735C83.7599 10.6354 83.9265 10.1788 83.9265 9.60396V9.14744Z" fill="#2D4A3E"/>
<path d="M76.9698 7.10152C76.7365 6.85353 76.492 6.65627 76.2365 6.50973C75.981 6.36319 75.7199 6.28992 75.4532 6.28992C75.0866 6.28992 74.7588 6.35755 74.4699 6.49282C74.181 6.62809 73.931 6.80844 73.7199 7.03389C73.52 7.25934 73.3644 7.5186 73.2533 7.81168C73.1533 8.10475 73.1033 8.4091 73.1033 8.72473C73.1033 9.04035 73.1533 9.3447 73.2533 9.63778C73.3644 9.93086 73.52 10.1901 73.7199 10.4156C73.931 10.641 74.181 10.8214 74.4699 10.9566C74.7588 11.0919 75.0866 11.1595 75.4532 11.1595C75.7643 11.1595 76.0532 11.0975 76.3198 10.9735C76.5865 10.8383 76.8142 10.6466 77.0031 10.3987L78.3364 11.8528C78.1364 12.0557 77.9031 12.2304 77.6364 12.3769C77.3809 12.5235 77.1198 12.6418 76.8531 12.732C76.5865 12.8222 76.3309 12.8842 76.0865 12.918C75.8421 12.9631 75.631 12.9856 75.4532 12.9856C74.8532 12.9856 74.2866 12.8842 73.7533 12.6813C73.22 12.4784 72.7589 12.1909 72.37 11.819C71.9811 11.447 71.67 11.0017 71.4367 10.4832C71.2145 9.9534 71.1034 9.36725 71.1034 8.72473C71.1034 8.08221 71.2145 7.50169 71.4367 6.98316C71.67 6.45337 71.9811 6.00248 72.37 5.63049C72.7589 5.25851 73.22 4.97107 73.7533 4.76817C74.2866 4.56526 74.8532 4.46381 75.4532 4.46381C75.9643 4.46381 76.4754 4.56526 76.9865 4.76817C77.5087 4.95979 77.9642 5.26978 78.3531 5.69813L76.9698 7.10152Z" fill="#2D4A3E"/>
<path d="M67.7075 4.66672H69.7074V12.7827H67.7075V4.66672ZM67.4241 1.91065C67.4241 1.58375 67.5408 1.30195 67.7741 1.06523C68.0186 0.817239 68.3241 0.693245 68.6908 0.693245C69.0574 0.693245 69.3629 0.811603 69.6074 1.04832C69.8629 1.27377 69.9907 1.56121 69.9907 1.91065C69.9907 2.26009 69.8629 2.55317 69.6074 2.78988C69.3629 3.01533 69.0574 3.12805 68.6908 3.12805C68.3241 3.12805 68.0186 3.00969 67.7741 2.77298C67.5408 2.52499 67.4241 2.23754 67.4241 1.91065Z" fill="#2D4A3E"/>
<path d="M63.9933 11.5653H63.96C63.6711 12.0613 63.2822 12.422 62.7934 12.6475C62.3045 12.8729 61.7767 12.9856 61.2101 12.9856C60.5879 12.9856 60.0324 12.8786 59.5435 12.6644C59.0657 12.4389 58.6547 12.1346 58.3102 11.7513C57.9658 11.3681 57.7047 10.9172 57.5269 10.3987C57.3492 9.88014 57.2603 9.32216 57.2603 8.72473C57.2603 8.1273 57.3547 7.56932 57.5436 7.0508C57.7325 6.53227 57.9936 6.08138 58.3269 5.69813C58.6713 5.31487 59.0824 5.01616 59.5602 4.80198C60.0379 4.57654 60.5601 4.46381 61.1268 4.46381C61.5045 4.46381 61.8378 4.50327 62.1267 4.58217C62.4156 4.66108 62.6711 4.76253 62.8934 4.88652C63.1156 5.01052 63.3044 5.14579 63.46 5.29233C63.6155 5.42759 63.7433 5.56286 63.8433 5.69813H63.8933V0H65.8932V12.7827H63.9933V11.5653ZM59.2602 8.72473C59.2602 9.04035 59.3102 9.3447 59.4102 9.63778C59.5213 9.93086 59.6768 10.1901 59.8768 10.4156C60.0879 10.641 60.3379 10.8214 60.6268 10.9566C60.9157 11.0919 61.2434 11.1595 61.6101 11.1595C61.9767 11.1595 62.3045 11.0919 62.5934 10.9566C62.8822 10.8214 63.1267 10.641 63.3267 10.4156C63.5378 10.1901 63.6933 9.93086 63.7933 9.63778C63.9044 9.3447 63.96 9.04035 63.96 8.72473C63.96 8.4091 63.9044 8.10475 63.7933 7.81168C63.6933 7.5186 63.5378 7.25934 63.3267 7.03389C63.1267 6.80844 62.8822 6.62809 62.5934 6.49282C62.3045 6.35756 61.9767 6.28992 61.6101 6.28992C61.2434 6.28992 60.9157 6.35756 60.6268 6.49282C60.3379 6.62809 60.0879 6.80844 59.8768 7.03389C59.6768 7.25934 59.5213 7.5186 59.4102 7.81168C59.3102 8.10475 59.2602 8.4091 59.2602 8.72473Z" fill="#2D4A3E"/>
<path d="M50.1903 9.43488C50.2569 10.0436 50.4903 10.517 50.8902 10.8552C51.2902 11.1934 51.7735 11.3624 52.3402 11.3624C52.8402 11.3624 53.2568 11.261 53.5901 11.0581C53.9346 10.8439 54.2345 10.579 54.4901 10.2634L55.9234 11.3624C55.4567 11.9486 54.9345 12.3657 54.3568 12.6137C53.779 12.8616 53.1735 12.9856 52.5402 12.9856C51.9402 12.9856 51.3736 12.8842 50.8403 12.6813C50.3069 12.4784 49.8459 12.1909 49.457 11.819C49.0681 11.447 48.757 11.0017 48.5237 10.4832C48.3015 9.9534 48.1904 9.36725 48.1904 8.72473C48.1904 8.08221 48.3015 7.50169 48.5237 6.98316C48.757 6.45337 49.0681 6.00248 49.457 5.63049C49.8459 5.25851 50.3069 4.97107 50.8403 4.76817C51.3736 4.56526 51.9402 4.46381 52.5402 4.46381C53.0957 4.46381 53.6012 4.56526 54.0568 4.76817C54.5234 4.95979 54.9178 5.2416 55.2401 5.61359C55.5734 5.98557 55.8289 6.44773 56.0067 7.00007C56.1956 7.54114 56.29 8.16675 56.29 8.8769V9.43488H50.1903ZM54.2901 7.91313C54.279 7.3157 54.0957 6.8479 53.7401 6.50973C53.3846 6.16029 52.8902 5.98557 52.2569 5.98557C51.6569 5.98557 51.1791 6.16029 50.8236 6.50973C50.4792 6.85917 50.2681 7.32697 50.1903 7.91313H54.2901Z" fill="#2D4A3E"/>
<path d="M33.8947 0.811603H37.0945L40.2444 9.19816L43.4276 0.811603H46.5941V12.7827H44.5942V2.84061H44.5608L40.9777 12.7827H39.5111L35.9279 2.84061H35.8946V12.7827H33.8947V0.811603Z" fill="#2D4A3E"/>
</svg>
