<svg width="173" height="50" viewBox="0 0 173 50" fill="none" xmlns="http://www.w3.org/2000/svg">
<path d="M0 14.4155C-1.22067e-06 13.4455 0.514747 12.5482 1.35257 12.0577L19.3957 1.49402C20.2404 0.999462 21.2853 0.993396 22.1357 1.47811L40.7063 12.0629C41.5597 12.5493 42.0864 13.4553 42.0864 14.4367L42.0864 35.5634C42.0864 36.5525 41.5513 37.4644 40.6874 37.9478L22.1165 48.3384C21.2759 48.8087 20.2496 48.8028 19.4145 48.3228L1.37167 37.9533C0.523096 37.4656 4.69076e-05 36.5623 4.41874e-05 35.5845L0 14.4155Z" fill="#2D4A3E"/>
<path d="M24.8559 15.3613C25.3008 14.121 27.0637 14.0623 27.5905 15.2701L27.639 15.3951L31.4812 26.6444H38.4049C39.0346 26.6444 39.5451 27.1543 39.5451 27.7832C39.545 28.412 39.0345 28.922 38.4049 28.922H30.9058C30.2742 28.922 29.7126 28.5204 29.5087 27.9233L26.3336 18.6286L22.5306 32.7938C22.158 34.1807 20.2222 34.2714 19.7212 32.9254L15.9151 22.6988L13.2023 28.1079C12.9521 28.6067 12.4413 28.9219 11.8827 28.922H4.12926C3.49964 28.922 2.98922 28.412 2.98912 27.7832C2.98912 27.1543 3.49958 26.6444 4.12926 26.6444H11.3861L14.705 20.0276L14.7625 19.9231C15.3666 18.9155 16.8718 18.9971 17.363 20.0641L17.4084 20.1744L20.9807 29.7729L24.8158 15.4894L24.8559 15.3613Z" fill="#E8E0D5"/>
<path d="M173 30.9781V42.5233C173 43.6682 172.859 44.6985 172.577 45.6144C172.295 46.5479 171.854 47.3316 171.254 47.9657C170.672 48.6174 169.932 49.1194 169.032 49.4716C168.133 49.8239 167.066 50 165.832 50C164.65 50 163.53 49.8503 162.472 49.5509C161.414 49.2514 160.436 48.7055 159.536 47.9129L161.441 45.3238C162.076 45.905 162.737 46.3541 163.425 46.6712C164.112 46.9882 164.906 47.1467 165.805 47.1467C166.563 47.1467 167.198 47.041 167.71 46.8297C168.239 46.6183 168.653 46.3277 168.953 45.9578C169.27 45.588 169.491 45.1388 169.614 44.6105C169.755 44.0997 169.826 43.5273 169.826 42.8932V41.9685H169.773C169.314 42.585 168.706 43.0517 167.948 43.3687C167.19 43.6682 166.414 43.8179 165.62 43.8179C164.668 43.8179 163.804 43.6506 163.028 43.3159C162.252 42.9636 161.582 42.4969 161.018 41.9157C160.471 41.3344 160.048 40.6475 159.748 39.855C159.448 39.0624 159.298 38.217 159.298 37.3187C159.298 36.3852 159.439 35.5134 159.721 34.7032C160.004 33.893 160.418 33.1885 160.965 32.5896C161.511 31.9908 162.164 31.5241 162.922 31.1894C163.698 30.8372 164.58 30.661 165.567 30.661C166.467 30.661 167.304 30.8372 168.08 31.1894C168.856 31.5417 169.473 32.1053 169.932 32.8803H169.985V30.9781H173ZM166.228 33.5143C165.664 33.5143 165.153 33.6112 164.694 33.8049C164.236 33.9811 163.839 34.2365 163.504 34.5711C163.187 34.8881 162.931 35.2844 162.737 35.76C162.561 36.2179 162.472 36.7287 162.472 37.2923C162.472 37.8031 162.561 38.2786 162.737 38.7189C162.931 39.1593 163.195 39.5467 163.53 39.8814C163.865 40.216 164.262 40.4802 164.721 40.674C165.179 40.8677 165.673 40.9646 166.202 40.9646C166.784 40.9646 167.304 40.8677 167.763 40.674C168.239 40.4802 168.636 40.2248 168.953 39.9078C169.288 39.5732 169.544 39.1769 169.72 38.7189C169.896 38.261 169.985 37.7678 169.985 37.2394C169.985 36.1298 169.649 35.2316 168.979 34.5447C168.309 33.8578 167.392 33.5143 166.228 33.5143Z" fill="#2D4A3E"/>
<path d="M145.273 30.9781H148.289V33.0124H148.342C148.641 32.3783 149.1 31.8323 149.717 31.3744C150.334 30.8988 151.172 30.661 152.23 30.661C153.076 30.661 153.79 30.8019 154.372 31.0837C154.972 31.3655 155.457 31.7354 155.827 32.1934C156.198 32.6513 156.462 33.1797 156.621 33.7785C156.779 34.3774 156.859 35.0026 156.859 35.6543V43.6594H153.685V37.2394C153.685 36.8872 153.667 36.4997 153.632 36.077C153.597 35.6367 153.5 35.2316 153.341 34.8617C153.2 34.4742 152.971 34.1572 152.653 33.9106C152.336 33.6464 151.904 33.5143 151.357 33.5143C150.828 33.5143 150.378 33.6024 150.008 33.7785C149.655 33.9546 149.355 34.1924 149.109 34.4918C148.879 34.7913 148.712 35.1347 148.606 35.5222C148.5 35.9097 148.447 36.3148 148.447 36.7375V43.6594H145.273V30.9781Z" fill="#2D4A3E"/>
<path d="M138.984 30.9781H142.158V43.6594H138.984V30.9781ZM138.534 26.6717C138.534 26.1609 138.719 25.7206 139.09 25.3507C139.478 24.9633 139.963 24.7695 140.545 24.7695C141.126 24.7695 141.611 24.9545 141.999 25.3243C142.405 25.6766 142.608 26.1257 142.608 26.6717C142.608 27.2177 142.405 27.6756 141.999 28.0455C141.611 28.3978 141.126 28.5739 140.545 28.5739C139.963 28.5739 139.478 28.389 139.09 28.0191C138.719 27.6316 138.534 27.1825 138.534 26.6717Z" fill="#2D4A3E"/>
<path d="M127.672 33.6728V30.9781H130.291V27.3058H133.465V30.9781H136.956V33.6728H133.465V39.2209C133.465 39.855 133.579 40.3569 133.809 40.7268C134.056 41.0967 134.532 41.2816 135.237 41.2816C135.519 41.2816 135.828 41.2552 136.163 41.2024C136.498 41.1319 136.762 41.0262 136.956 40.8853V43.5537C136.621 43.7122 136.207 43.8179 135.713 43.8707C135.237 43.9412 134.814 43.9764 134.444 43.9764C133.597 43.9764 132.901 43.8795 132.354 43.6858C131.825 43.5096 131.402 43.2366 131.084 42.8668C130.784 42.4793 130.573 42.0037 130.449 41.4401C130.344 40.8765 130.291 40.2248 130.291 39.4851V33.6728H127.672Z" fill="#2D4A3E"/>
<path d="M117.033 38.4283C117.139 39.3794 117.509 40.1192 118.144 40.6475C118.779 41.1759 119.546 41.4401 120.445 41.4401C121.239 41.4401 121.9 41.2816 122.429 40.9646C122.975 40.6299 123.452 40.216 123.857 39.7229L126.132 41.4401C125.391 42.356 124.563 43.0077 123.646 43.3952C122.729 43.7826 121.768 43.9764 120.762 43.9764C119.81 43.9764 118.911 43.8179 118.064 43.5008C117.218 43.1838 116.486 42.7347 115.869 42.1535C115.252 41.5722 114.758 40.8765 114.388 40.0663C114.035 39.2385 113.859 38.3226 113.859 37.3187C113.859 36.3148 114.035 35.4077 114.388 34.5975C114.758 33.7697 115.252 33.0652 115.869 32.484C116.486 31.9027 117.218 31.4536 118.064 31.1366C118.911 30.8195 119.81 30.661 120.762 30.661C121.644 30.661 122.446 30.8195 123.169 31.1366C123.91 31.436 124.536 31.8763 125.048 32.4575C125.577 33.0388 125.982 33.7609 126.264 34.6239C126.564 35.4694 126.714 36.4469 126.714 37.5565V38.4283H117.033ZM123.54 36.0506C123.522 35.1171 123.231 34.3862 122.667 33.8578C122.103 33.3118 121.318 33.0388 120.313 33.0388C119.36 33.0388 118.602 33.3118 118.038 33.8578C117.491 34.4038 117.156 35.1347 117.033 36.0506H123.54Z" fill="#2D4A3E"/>
<path d="M100.815 23.6863H103.989V36.2355L108.883 30.9781H112.956L107.507 36.7375L113.3 43.6594H109.094L104.042 37.1866H103.989V43.6594H100.815V23.6863Z" fill="#2D4A3E"/>
<path d="M91.0632 30.9781H94.2374V32.9859H94.2903C94.643 32.2462 95.1456 31.6738 95.798 31.2687C96.4505 30.8636 97.2 30.661 98.0464 30.661C98.2404 30.661 98.4256 30.6786 98.6019 30.7139C98.7959 30.7491 98.9899 30.7931 99.1838 30.846V33.9106C98.9193 33.8402 98.6548 33.7873 98.3903 33.7521C98.1434 33.6993 97.8965 33.6728 97.6496 33.6728C96.909 33.6728 96.3094 33.8137 95.851 34.0955C95.4101 34.3597 95.0662 34.668 94.8194 35.0202C94.5901 35.3725 94.4314 35.7247 94.3432 36.077C94.2727 36.4293 94.2374 36.6935 94.2374 36.8696V43.6594H91.0632V30.9781Z" fill="#2D4A3E"/>
<path d="M85.3204 41.9157H85.2411C84.7826 42.6378 84.2006 43.1662 83.4953 43.5008C82.7899 43.8179 82.014 43.9764 81.1675 43.9764C80.5856 43.9764 80.0125 43.8971 79.4482 43.7386C78.9015 43.5801 78.4078 43.3423 77.9669 43.0253C77.5437 42.7083 77.1998 42.312 76.9353 41.8364C76.6708 41.3609 76.5385 40.8061 76.5385 40.172C76.5385 39.4851 76.662 38.9039 76.9089 38.4283C77.1557 37.9352 77.482 37.5301 77.8876 37.213C78.3108 36.8784 78.7957 36.6142 79.3424 36.4205C79.8891 36.2267 80.4533 36.0858 81.0353 35.9977C81.6348 35.8921 82.2344 35.8304 82.834 35.8128C83.4335 35.7776 83.9978 35.76 84.5269 35.76H85.3204V35.4165C85.3204 34.6239 85.0471 34.0339 84.5004 33.6464C83.9538 33.2413 83.2572 33.0388 82.4108 33.0388C81.7406 33.0388 81.1146 33.1621 80.5327 33.4086C79.9508 33.6376 79.4482 33.9546 79.025 34.3597L77.3585 32.6953C78.0639 31.9732 78.8839 31.4536 79.8185 31.1366C80.7708 30.8195 81.7495 30.661 82.7546 30.661C83.654 30.661 84.4122 30.7667 85.0294 30.9781C85.6466 31.1718 86.158 31.4272 86.5636 31.7442C86.9692 32.0613 87.2778 32.4311 87.4894 32.8538C87.7187 33.2589 87.8774 33.6728 87.9655 34.0955C88.0714 34.5183 88.1331 34.9322 88.1507 35.3373C88.1683 35.7247 88.1772 36.0682 88.1772 36.3676V43.6594H85.3204V41.9157ZM85.1352 37.9792H84.474C84.0331 37.9792 83.5393 37.9968 82.9927 38.032C82.446 38.0673 81.9258 38.1553 81.4321 38.2962C80.9559 38.4195 80.5503 38.6133 80.2153 38.8775C79.8802 39.124 79.7127 39.4763 79.7127 39.9342C79.7127 40.2336 79.7744 40.489 79.8979 40.7004C80.0389 40.8941 80.2153 41.0615 80.4269 41.2024C80.6385 41.3433 80.8766 41.4489 81.1411 41.5194C81.4056 41.5722 81.6701 41.5986 81.9346 41.5986C83.0279 41.5986 83.8303 41.3433 84.3417 40.8325C84.8707 40.3041 85.1352 39.5908 85.1352 38.6925V37.9792Z" fill="#2D4A3E"/>
<path d="M53.7961 24.9545H58.8748L63.8741 38.0585L68.9263 24.9545H73.9521V43.6594H70.7779V28.1248H70.725L65.038 43.6594H62.7102L57.0232 28.1248H56.9703V43.6594H53.7961V24.9545Z" fill="#2D4A3E"/>
<path d="M138.921 0H142.095V19.973H138.921V0Z" fill="#2D4A3E"/>
<path d="M133.39 18.2294H133.31C132.852 18.9515 132.27 19.4799 131.564 19.8145C130.859 20.1315 130.083 20.2901 129.237 20.2901C128.655 20.2901 128.082 20.2108 127.517 20.0523C126.971 19.8938 126.477 19.656 126.036 19.339C125.613 19.0219 125.269 18.6256 125.005 18.1501C124.74 17.6746 124.608 17.1197 124.608 16.4857C124.608 15.7988 124.731 15.2175 124.978 14.742C125.225 14.2488 125.551 13.8437 125.957 13.5267C126.38 13.1921 126.865 12.9279 127.412 12.7341C127.958 12.5404 128.523 12.3995 129.105 12.3114C129.704 12.2057 130.304 12.1441 130.903 12.1265C131.503 12.0913 132.067 12.0736 132.596 12.0736H133.39V11.7302C133.39 10.9376 133.116 10.3476 132.57 9.9601C132.023 9.555 131.326 9.35245 130.48 9.35245C129.81 9.35245 129.184 9.47574 128.602 9.72232C128.02 9.95129 127.517 10.2683 127.094 10.6734L125.428 9.009C126.133 8.28687 126.953 7.76729 127.888 7.45026C128.84 7.13323 129.819 6.97471 130.824 6.97471C131.723 6.97471 132.481 7.08039 133.099 7.29174C133.716 7.48548 134.227 7.74087 134.633 8.0579C135.038 8.37494 135.347 8.74481 135.559 9.16752C135.788 9.57261 135.947 9.98652 136.035 10.4092C136.141 10.8319 136.202 11.2458 136.22 11.6509C136.238 12.0384 136.246 12.3819 136.246 12.6813V19.973H133.39V18.2294ZM133.204 14.2929H132.543C132.102 14.2929 131.609 14.3105 131.062 14.3457C130.515 14.3809 129.995 14.469 129.501 14.6099C129.025 14.7332 128.62 14.9269 128.285 15.1911C127.949 15.4377 127.782 15.79 127.782 16.2479C127.782 16.5473 127.844 16.8027 127.967 17.0141C128.108 17.2078 128.285 17.3751 128.496 17.516C128.708 17.6569 128.946 17.7626 129.21 17.8331C129.475 17.8859 129.739 17.9123 130.004 17.9123C131.097 17.9123 131.9 17.6569 132.411 17.1462C132.94 16.6178 133.204 15.9045 133.204 15.0062V14.2929Z" fill="#2D4A3E"/>
<path d="M122.163 11.0961C121.793 10.7086 121.405 10.4004 120.999 10.1715C120.594 9.94248 120.179 9.828 119.756 9.828C119.174 9.828 118.654 9.93368 118.195 10.145C117.737 10.3564 117.34 10.6382 117.005 10.9905C116.688 11.3427 116.441 11.7478 116.264 12.2057C116.106 12.6637 116.026 13.1392 116.026 13.6324C116.026 14.1255 116.106 14.6011 116.264 15.059C116.441 15.517 116.688 15.9221 117.005 16.2743C117.34 16.6266 117.737 16.9084 118.195 17.1197C118.654 17.3311 119.174 17.4368 119.756 17.4368C120.25 17.4368 120.708 17.3399 121.131 17.1462C121.555 16.9348 121.916 16.6354 122.216 16.2479L124.332 18.52C124.015 18.837 123.644 19.11 123.221 19.339C122.816 19.5679 122.401 19.7529 121.978 19.8938C121.555 20.0347 121.149 20.1316 120.761 20.1844C120.373 20.2548 120.038 20.2901 119.756 20.2901C118.804 20.2901 117.904 20.1315 117.058 19.8145C116.212 19.4975 115.48 19.0484 114.862 18.4671C114.245 17.8859 113.752 17.1902 113.381 16.38C113.029 15.5522 112.852 14.6363 112.852 13.6324C112.852 12.6285 113.029 11.7214 113.381 10.9112C113.752 10.0834 114.245 9.37887 114.862 8.79765C115.48 8.21642 116.212 7.76729 117.058 7.45026C117.904 7.13323 118.804 6.97471 119.756 6.97471C120.567 6.97471 121.378 7.13323 122.19 7.45026C123.018 7.74968 123.741 8.23403 124.359 8.90332L122.163 11.0961Z" fill="#2D4A3E"/>
<path d="M107.462 7.29174H110.636V19.973H107.462V7.29174ZM107.013 2.98539C107.013 2.47461 107.198 2.03429 107.568 1.66442C107.956 1.27694 108.441 1.08319 109.023 1.08319C109.605 1.08319 110.09 1.26813 110.478 1.638C110.883 1.99026 111.086 2.43939 111.086 2.98539C111.086 3.53139 110.883 3.98932 110.478 4.35919C110.09 4.71145 109.605 4.88758 109.023 4.88758C108.441 4.88758 107.956 4.70265 107.568 4.33278C107.198 3.94529 107.013 3.49616 107.013 2.98539Z" fill="#2D4A3E"/>
<path d="M101.567 18.0708H101.514C101.056 18.8458 100.439 19.4094 99.6628 19.7617C98.8869 20.1139 98.0493 20.2901 97.15 20.2901C96.1624 20.2901 95.2807 20.1227 94.5048 19.7881C93.7466 19.4358 93.0941 18.9603 92.5474 18.3615C92.0008 17.7626 91.5864 17.0581 91.3042 16.2479C91.0221 15.4377 90.881 14.5659 90.881 13.6324C90.881 12.6989 91.0309 11.8271 91.3307 11.0169C91.6304 10.2067 92.0448 9.50216 92.5739 8.90332C93.1205 8.30449 93.773 7.83774 94.5313 7.5031C95.2895 7.15084 96.1184 6.97471 97.0177 6.97471C97.6173 6.97471 98.1463 7.03636 98.6048 7.15965C99.0633 7.28294 99.4689 7.44145 99.8216 7.63519C100.174 7.82894 100.474 8.04029 100.721 8.26926C100.968 8.48061 101.171 8.69197 101.329 8.90332H101.409V0H104.583V19.973H101.567V18.0708ZM94.0552 13.6324C94.0552 14.1255 94.1345 14.6011 94.2932 15.059C94.4696 15.517 94.7164 15.9221 95.0339 16.2743C95.3689 16.6266 95.7657 16.9084 96.2242 17.1197C96.6827 17.3311 97.2029 17.4368 97.7848 17.4368C98.3667 17.4368 98.8869 17.3311 99.3454 17.1197C99.8039 16.9084 100.192 16.6266 100.509 16.2743C100.844 15.9221 101.091 15.517 101.25 15.059C101.426 14.6011 101.514 14.1255 101.514 13.6324C101.514 13.1392 101.426 12.6637 101.25 12.2057C101.091 11.7478 100.844 11.3427 100.509 10.9905C100.192 10.6382 99.8039 10.3564 99.3454 10.145C98.8869 9.93368 98.3667 9.828 97.7848 9.828C97.2029 9.828 96.6827 9.93368 96.2242 10.145C95.7657 10.3564 95.3689 10.6382 95.0339 10.9905C94.7164 11.3427 94.4696 11.7478 94.2932 12.2057C94.1345 12.6637 94.0552 13.1392 94.0552 13.6324Z" fill="#2D4A3E"/>
<path d="M79.6598 14.742C79.7656 15.6931 80.1359 16.4328 80.7708 16.9612C81.4056 17.4896 82.1727 17.7538 83.072 17.7538C83.8656 17.7538 84.5269 17.5953 85.0559 17.2783C85.6025 16.9436 86.0787 16.5297 86.4843 16.0366L88.7591 17.7538C88.0184 18.6697 87.1896 19.3214 86.2727 19.7088C85.3557 20.0963 84.3946 20.2901 83.3895 20.2901C82.4372 20.2901 81.5378 20.1315 80.6914 19.8145C79.845 19.4975 79.1131 19.0484 78.4959 18.4671C77.8787 17.8859 77.385 17.1902 77.0147 16.38C76.662 15.5522 76.4856 14.6363 76.4856 13.6324C76.4856 12.6285 76.662 11.7214 77.0147 10.9112C77.385 10.0834 77.8787 9.37887 78.4959 8.79765C79.1131 8.21642 79.845 7.76729 80.6914 7.45026C81.5378 7.13323 82.4372 6.97471 83.3895 6.97471C84.2712 6.97471 85.0735 7.13323 85.7965 7.45026C86.5372 7.74968 87.1632 8.19 87.6746 8.77123C88.2036 9.35245 88.6092 10.0746 88.8913 10.9376C89.1911 11.783 89.341 12.7605 89.341 13.8702V14.742H79.6598ZM86.1668 12.3643C86.1492 11.4308 85.8582 10.6998 85.294 10.1715C84.7297 9.62545 83.9449 9.35245 82.9398 9.35245C81.9875 9.35245 81.2292 9.62545 80.665 10.1715C80.1183 10.7175 79.7832 11.4484 79.6598 12.3643H86.1668Z" fill="#2D4A3E"/>
<path d="M53.7961 1.26813H58.8748L63.8741 14.3721L68.9263 1.26813H73.9521V19.973H70.7779V4.43845H70.725L65.038 19.973H62.7102L57.0232 4.43845H56.9703V19.973H53.7961V1.26813Z" fill="#2D4A3E"/>
</svg>
