<svg width="171" height="50" viewBox="0 0 171 50" fill="none" xmlns="http://www.w3.org/2000/svg">
<path d="M0 12.9841C-1.03662e-06 12.0074 0.516862 11.104 1.35813 10.6101L18.7873 0.377802C19.6354 -0.120149 20.6846 -0.126256 21.5386 0.361788L39.4787 10.6153C40.3355 11.1051 40.8644 12.0173 40.8644 13.0054L40.8644 33.4691C40.8644 34.465 40.3272 35.3831 39.4597 35.8698L21.5193 45.9352C20.6752 46.4088 19.6447 46.4029 18.8061 45.9196L1.3773 35.8754C0.52524 35.3844 3.9818e-05 34.4749 3.73067e-05 33.4903L0 12.9841Z" fill="#E8E0D5"/>
<path d="M24.0798 13.8671C24.5111 12.6613 26.2203 12.6043 26.7309 13.7785L26.778 13.9L30.503 24.8361H37.2155C37.826 24.8361 38.3209 25.3318 38.3209 25.9432C38.3208 26.5545 37.8259 27.0502 37.2155 27.0502H29.9451C29.3328 27.0502 28.7883 26.6598 28.5906 26.0794L25.5124 17.0434L21.8254 30.8143C21.4642 32.1625 19.5875 32.2507 19.1017 30.9423L15.4117 21.0003L12.7817 26.2589C12.5391 26.7438 12.0439 27.0502 11.5023 27.0502H3.98541C3.375 27.0502 2.88015 26.5545 2.88004 25.9432C2.88004 25.3318 3.37493 24.8361 3.98541 24.8361H11.0209L14.2386 18.4035L14.2943 18.3019C14.8799 17.3224 16.3392 17.4017 16.8154 18.4389L16.8595 18.5462L20.3228 27.8775L24.0409 13.9917L24.0798 13.8671Z" fill="#2D4A3E"/>
<path d="M54.7779 2.69776H59.6819L64.5093 15.3859L69.3878 2.69776H74.2407V20.809H71.1757V5.76746H71.1246L65.6331 20.809H63.3855L57.894 5.76746H57.8429V20.809H54.7779V2.69776Z" fill="#E8E0D5"/>
<path d="M79.7521 15.744C79.8543 16.6649 80.2119 17.3812 80.8249 17.8928C81.4379 18.4044 82.1786 18.6602 83.047 18.6602C83.8132 18.6602 84.4518 18.5067 84.9626 18.1998C85.4905 17.8757 85.9502 17.475 86.3419 16.9975L88.5385 18.6602C87.8233 19.547 87.023 20.178 86.1375 20.5532C85.2521 20.9284 84.3241 21.116 83.3535 21.116C82.434 21.116 81.5656 20.9625 80.7482 20.6555C79.9309 20.3485 79.2243 19.9137 78.6283 19.3509C78.0323 18.7881 77.5555 18.1145 77.1979 17.33C76.8574 16.5285 76.6871 15.6417 76.6871 14.6696C76.6871 13.6975 76.8574 12.8192 77.1979 12.0348C77.5555 11.2332 78.0323 10.5511 78.6283 9.9883C79.2243 9.42552 79.9309 8.99065 80.7482 8.68368C81.5656 8.37671 82.434 8.22322 83.3535 8.22322C84.2049 8.22322 84.9796 8.37671 85.6778 8.68368C86.393 8.97359 86.9974 9.39994 87.4912 9.96272C88.0021 10.5255 88.3937 11.2247 88.6662 12.0604C88.9556 12.8789 89.1004 13.8254 89.1004 14.8998V15.744H79.7521ZM86.0354 13.4417C86.0183 12.5379 85.7374 11.8301 85.1925 11.3185C84.6476 10.7898 83.8899 10.5255 82.9193 10.5255C81.9998 10.5255 81.2676 10.7898 80.7227 11.3185C80.1948 11.8472 79.8713 12.5549 79.7521 13.4417H86.0354Z" fill="#E8E0D5"/>
<path d="M100.906 18.9672H100.855C100.412 19.7176 99.8164 20.2633 99.0672 20.6044C98.318 20.9454 97.5092 21.116 96.6408 21.116C95.6872 21.116 94.8358 20.954 94.0866 20.6299C93.3544 20.2889 92.7244 19.8284 92.1965 19.2486C91.6686 18.6687 91.2685 17.9866 90.996 17.2021C90.7236 16.4176 90.5874 15.5735 90.5874 14.6696C90.5874 13.7657 90.7321 12.9216 91.0216 12.1371C91.3111 11.3526 91.7112 10.6705 92.222 10.0906C92.7499 9.51079 93.3799 9.05886 94.1121 8.73484C94.8443 8.39376 95.6446 8.22322 96.5131 8.22322C97.092 8.22322 97.6028 8.28291 98.0456 8.40229C98.4883 8.52167 98.8799 8.67515 99.2205 8.86274C99.561 9.05034 99.8505 9.25498 100.089 9.47669C100.327 9.68133 100.523 9.88598 100.676 10.0906H100.753V1.46988H103.818V20.809H100.906V18.9672ZM93.6524 14.6696C93.6524 15.1471 93.729 15.6076 93.8823 16.051C94.0525 16.4944 94.2909 16.8866 94.5974 17.2277C94.921 17.5688 95.3041 17.8416 95.7468 18.0463C96.1895 18.2509 96.6918 18.3532 97.2538 18.3532C97.8157 18.3532 98.318 18.2509 98.7607 18.0463C99.2034 17.8416 99.5781 17.5688 99.8846 17.2277C100.208 16.8866 100.446 16.4944 100.6 16.051C100.77 15.6076 100.855 15.1471 100.855 14.6696C100.855 14.1921 100.77 13.7316 100.6 13.2882C100.446 12.8448 100.208 12.4526 99.8846 12.1115C99.5781 11.7704 99.2034 11.4976 98.7607 11.2929C98.318 11.0883 97.8157 10.986 97.2538 10.986C96.6918 10.986 96.1895 11.0883 95.7468 11.2929C95.3041 11.4976 94.921 11.7704 94.5974 12.1115C94.2909 12.4526 94.0525 12.8448 93.8823 13.2882C93.729 13.7316 93.6524 14.1921 93.6524 14.6696Z" fill="#E8E0D5"/>
<path d="M106.598 8.53019H109.663V20.809H106.598V8.53019ZM106.164 4.36052C106.164 3.86595 106.343 3.4396 106.701 3.08147C107.075 2.70629 107.543 2.51869 108.105 2.51869C108.667 2.51869 109.136 2.69776 109.51 3.05589C109.902 3.39697 110.098 3.83184 110.098 4.36052C110.098 4.88919 109.902 5.33259 109.51 5.69072C109.136 6.0318 108.667 6.20234 108.105 6.20234C107.543 6.20234 107.075 6.02327 106.701 5.66514C106.343 5.28995 106.164 4.85508 106.164 4.36052Z" fill="#E8E0D5"/>
<path d="M120.794 12.2138C120.436 11.8386 120.061 11.5402 119.67 11.3185C119.278 11.0968 118.878 10.986 118.469 10.986C117.907 10.986 117.405 11.0883 116.962 11.2929C116.52 11.4976 116.137 11.7704 115.813 12.1115C115.507 12.4526 115.268 12.8448 115.098 13.2882C114.945 13.7316 114.868 14.1921 114.868 14.6696C114.868 15.1471 114.945 15.6076 115.098 16.051C115.268 16.4944 115.507 16.8866 115.813 17.2277C116.137 17.5688 116.52 17.8416 116.962 18.0463C117.405 18.2509 117.907 18.3532 118.469 18.3532C118.946 18.3532 119.389 18.2594 119.798 18.0718C120.206 17.8672 120.555 17.5773 120.845 17.2021L122.888 19.4021C122.582 19.709 122.224 19.9734 121.815 20.1951C121.424 20.4168 121.024 20.5958 120.615 20.7323C120.206 20.8687 119.815 20.9625 119.44 21.0136C119.065 21.0819 118.742 21.116 118.469 21.116C117.55 21.116 116.681 20.9625 115.864 20.6555C115.047 20.3485 114.34 19.9137 113.744 19.3509C113.148 18.7881 112.671 18.1145 112.314 17.33C111.973 16.5285 111.803 15.6417 111.803 14.6696C111.803 13.6975 111.973 12.8192 112.314 12.0348C112.671 11.2332 113.148 10.5511 113.744 9.9883C114.34 9.42552 115.047 8.99065 115.864 8.68368C116.681 8.37671 117.55 8.22322 118.469 8.22322C119.253 8.22322 120.036 8.37671 120.819 8.68368C121.619 8.97359 122.318 9.44258 122.914 10.0906L120.794 12.2138Z" fill="#E8E0D5"/>
<path d="M131.634 19.1207H131.557C131.115 19.8199 130.553 20.3315 129.872 20.6555C129.191 20.9625 128.441 21.116 127.624 21.116C127.062 21.116 126.509 21.0392 125.964 20.8857C125.436 20.7323 124.959 20.502 124.534 20.1951C124.125 19.8881 123.793 19.5044 123.537 19.0439C123.282 18.5835 123.154 18.0463 123.154 17.4323C123.154 16.7672 123.273 16.2044 123.512 15.744C123.75 15.2665 124.065 14.8742 124.457 14.5673C124.866 14.2432 125.334 13.9874 125.862 13.7998C126.39 13.6123 126.934 13.4758 127.496 13.3906C128.075 13.2882 128.654 13.2285 129.233 13.2115C129.812 13.1774 130.357 13.1603 130.868 13.1603H131.634V12.8278C131.634 12.0604 131.37 11.489 130.842 11.1139C130.314 10.7216 129.642 10.5255 128.825 10.5255C128.177 10.5255 127.573 10.6449 127.011 10.8836C126.449 11.1053 125.964 11.4123 125.555 11.8045L123.946 10.1929C124.627 9.49374 125.419 8.99065 126.321 8.68368C127.241 8.37671 128.186 8.22322 129.157 8.22322C130.025 8.22322 130.757 8.32555 131.353 8.53019C131.949 8.71779 132.443 8.96507 132.835 9.27204C133.226 9.57901 133.524 9.93714 133.729 10.3464C133.95 10.7387 134.103 11.1394 134.188 11.5487C134.29 11.958 134.35 12.3588 134.367 12.751C134.384 13.1262 134.393 13.4588 134.393 13.7487V20.809H131.634V19.1207ZM131.455 15.3091H130.817C130.391 15.3091 129.914 15.3262 129.386 15.3603C128.859 15.3944 128.356 15.4797 127.879 15.6161C127.42 15.7355 127.028 15.9231 126.705 16.1789C126.381 16.4176 126.219 16.7587 126.219 17.2021C126.219 17.492 126.279 17.7393 126.398 17.9439C126.534 18.1315 126.705 18.2936 126.909 18.43C127.113 18.5664 127.343 18.6687 127.598 18.737C127.854 18.7881 128.109 18.8137 128.365 18.8137C129.42 18.8137 130.195 18.5664 130.689 18.0718C131.2 17.5602 131.455 16.8695 131.455 15.9998V15.3091Z" fill="#E8E0D5"/>
<path d="M136.975 1.46988H140.04V20.809H136.975V1.46988Z" fill="#E8E0D5"/>
<path d="M54.7863 25.6517H59.7101L64.5569 38.3909L69.455 25.6517H74.3275V43.8359H71.2501V28.7338H71.1988L65.6853 43.8359H63.4286L57.915 28.7338H57.8637V43.8359H54.7863V25.6517Z" fill="#E8E0D5"/>
<path d="M85.349 42.1407H85.2721C84.8276 42.8428 84.2634 43.3564 83.5795 43.6818C82.8957 43.99 82.1434 44.1441 81.3228 44.1441C80.7586 44.1441 80.203 44.067 79.6559 43.9129C79.1259 43.7588 78.6472 43.5277 78.2198 43.2195C77.8095 42.9113 77.4761 42.526 77.2197 42.0637C76.9632 41.6014 76.835 41.062 76.835 40.4456C76.835 39.7778 76.9547 39.2128 77.1941 38.7505C77.4334 38.271 77.7497 37.8772 78.1429 37.569C78.5532 37.2437 79.0234 36.9869 79.5533 36.7985C80.0833 36.6102 80.6304 36.4732 81.1946 36.3876C81.7759 36.2848 82.3571 36.2249 82.9384 36.2078C83.5197 36.1735 84.0668 36.1564 84.5797 36.1564H85.349V35.8225C85.349 35.052 85.084 34.4784 84.554 34.1017C84.024 33.7079 83.3487 33.511 82.5281 33.511C81.8784 33.511 81.2715 33.6308 80.7074 33.8706C80.1432 34.0931 79.6559 34.4014 79.2456 34.7952L77.63 33.1771C78.3139 32.4751 79.1088 31.97 80.0149 31.6617C80.9381 31.3535 81.887 31.1994 82.8615 31.1994C83.7334 31.1994 84.4686 31.3022 85.0669 31.5076C85.6653 31.696 86.1611 31.9443 86.5543 32.2525C86.9475 32.5607 87.2467 32.9203 87.4519 33.3312C87.6741 33.725 87.828 34.1274 87.9135 34.5383C88.016 34.9493 88.0759 35.3517 88.093 35.7455C88.1101 36.1222 88.1186 36.4561 88.1186 36.7471V43.8359H85.349V42.1407ZM85.1695 38.3139H84.5284C84.101 38.3139 83.6223 38.331 83.0923 38.3652C82.5623 38.3995 82.058 38.4851 81.5793 38.6221C81.1177 38.7419 80.7244 38.9303 80.3996 39.1871C80.0748 39.4268 79.9124 39.7693 79.9124 40.2145C79.9124 40.5055 79.9722 40.7538 80.0919 40.9593C80.2287 41.1476 80.3996 41.3103 80.6048 41.4473C80.8099 41.5843 81.0407 41.687 81.2972 41.7555C81.5536 41.8069 81.8101 41.8325 82.0665 41.8325C83.1265 41.8325 83.9044 41.5843 84.4002 41.0877C84.913 40.574 85.1695 39.8806 85.1695 39.0073V38.3139Z" fill="#E8E0D5"/>
<path d="M90.9167 31.5076H93.994V33.4596H94.0453C94.3872 32.7405 94.8745 32.184 95.507 31.7902C96.1396 31.3963 96.8662 31.1994 97.6868 31.1994C97.8749 31.1994 98.0544 31.2166 98.2254 31.2508C98.4134 31.285 98.6015 31.3279 98.7895 31.3792V34.3585C98.5331 34.2901 98.2766 34.2387 98.0202 34.2044C97.7809 34.1531 97.5415 34.1274 97.3022 34.1274C96.5841 34.1274 96.0028 34.2644 95.5583 34.5383C95.1309 34.7952 94.7975 35.0948 94.5582 35.4373C94.3359 35.7797 94.1821 36.1222 94.0966 36.4646C94.0282 36.8071 93.994 37.0639 93.994 37.2351V43.8359H90.9167V31.5076Z" fill="#E8E0D5"/>
<path d="M100.371 24.4189H103.448V36.6187L108.193 31.5076H112.142L106.859 37.1067L112.475 43.8359H108.398L103.5 37.5433H103.448V43.8359H100.371V24.4189Z" fill="#E8E0D5"/>
<path d="M116.094 38.7505C116.197 39.6751 116.556 40.3942 117.171 40.9079C117.787 41.4216 118.53 41.6784 119.402 41.6784C120.171 41.6784 120.813 41.5243 121.325 41.2161C121.855 40.8908 122.317 40.4884 122.71 40.009L124.916 41.6784C124.198 42.5688 123.394 43.2023 122.505 43.579C121.616 43.9557 120.684 44.1441 119.71 44.1441C118.787 44.1441 117.915 43.99 117.094 43.6818C116.273 43.3736 115.564 42.9369 114.966 42.3719C114.367 41.8069 113.889 41.1305 113.53 40.3429C113.188 39.5381 113.017 38.6477 113.017 37.6718C113.017 36.6958 113.188 35.814 113.53 35.0263C113.889 34.2216 114.367 33.5367 114.966 32.9716C115.564 32.4066 116.273 31.97 117.094 31.6617C117.915 31.3535 118.787 31.1994 119.71 31.1994C120.565 31.1994 121.343 31.3535 122.044 31.6617C122.762 31.9528 123.368 32.3809 123.864 32.9459C124.377 33.511 124.77 34.213 125.044 35.052C125.335 35.8739 125.48 36.8242 125.48 37.9029V38.7505H116.094ZM122.403 36.4389C122.385 35.5314 122.103 34.8209 121.556 34.3072C121.009 33.7764 120.248 33.511 119.274 33.511C118.351 33.511 117.616 33.7764 117.068 34.3072C116.538 34.838 116.214 35.5486 116.094 36.4389H122.403Z" fill="#E8E0D5"/>
<path d="M126.409 34.1274V31.5076H128.947V27.9376H132.025V31.5076H135.41V34.1274H132.025V39.521C132.025 40.1374 132.136 40.6254 132.358 40.985C132.598 41.3446 133.059 41.5243 133.743 41.5243C134.017 41.5243 134.316 41.4987 134.641 41.4473C134.965 41.3788 135.222 41.2761 135.41 41.1391V43.7331C135.085 43.8872 134.683 43.99 134.205 44.0414C133.743 44.1098 133.333 44.1441 132.974 44.1441C132.153 44.1441 131.478 44.0499 130.948 43.8616C130.435 43.6903 130.025 43.4249 129.717 43.0654C129.426 42.6887 129.221 42.2264 129.101 41.6784C128.999 41.1305 128.947 40.497 128.947 39.7778V34.1274H126.409Z" fill="#E8E0D5"/>
<path d="M137.376 31.5076H140.453V43.8359H137.376V31.5076ZM136.94 27.3212C136.94 26.8246 137.119 26.3966 137.478 26.037C137.854 25.6603 138.324 25.4719 138.889 25.4719C139.453 25.4719 139.923 25.6517 140.299 26.0113C140.692 26.3538 140.889 26.7904 140.889 27.3212C140.889 27.852 140.692 28.2972 140.299 28.6567C139.923 28.9992 139.453 29.1704 138.889 29.1704C138.324 29.1704 137.854 28.9906 137.478 28.6311C137.119 28.2544 136.94 27.8177 136.94 27.3212Z" fill="#E8E0D5"/>
<path d="M143.473 31.5076H146.396V33.4853H146.448C146.738 32.8689 147.183 32.3381 147.781 31.8929C148.38 31.4306 149.192 31.1994 150.217 31.1994C151.038 31.1994 151.73 31.3364 152.295 31.6104C152.876 31.8843 153.346 32.2439 153.705 32.6891C154.064 33.1343 154.321 33.648 154.474 34.2301C154.628 34.8123 154.705 35.4201 154.705 36.0537V43.8359H151.628V37.5947C151.628 37.2523 151.611 36.8756 151.577 36.4646C151.542 36.0366 151.448 35.6427 151.294 35.2832C151.158 34.9065 150.935 34.5983 150.628 34.3585C150.32 34.1017 149.901 33.9733 149.371 33.9733C148.858 33.9733 148.422 34.0589 148.063 34.2301C147.721 34.4014 147.431 34.6325 147.191 34.9236C146.969 35.2147 146.807 35.5486 146.704 35.9253C146.602 36.302 146.55 36.6958 146.55 37.1067V43.8359H143.473V31.5076Z" fill="#E8E0D5"/>
<path d="M170.354 31.5076V42.7315C170.354 43.8444 170.217 44.8461 169.944 45.7365C169.67 46.644 169.243 47.4059 168.661 48.0223C168.097 48.6559 167.379 49.1439 166.507 49.4863C165.635 49.8288 164.601 50 163.404 50C162.259 50 161.173 49.8545 160.147 49.5634C159.122 49.2723 158.173 48.7415 157.301 47.971L159.147 45.454C159.763 46.019 160.404 46.4556 161.071 46.7638C161.737 47.072 162.507 47.2261 163.379 47.2261C164.114 47.2261 164.729 47.1234 165.225 46.9179C165.738 46.7125 166.14 46.4299 166.43 46.0704C166.738 45.7108 166.952 45.2742 167.071 44.7605C167.208 44.2639 167.277 43.7075 167.277 43.091V42.1921H167.225C166.781 42.7914 166.191 43.2452 165.456 43.5534C164.721 43.8444 163.968 43.99 163.199 43.99C162.276 43.99 161.438 43.8273 160.686 43.502C159.934 43.1595 159.284 42.7058 158.737 42.1407C158.207 41.5757 157.797 40.9079 157.506 40.1374C157.215 39.3669 157.07 38.545 157.07 37.6718C157.07 36.7643 157.207 35.9167 157.48 35.1291C157.754 34.3414 158.156 33.6565 158.686 33.0744C159.216 32.4922 159.848 32.0384 160.583 31.7131C161.336 31.3707 162.19 31.1994 163.148 31.1994C164.02 31.1994 164.832 31.3707 165.584 31.7131C166.336 32.0556 166.935 32.6035 167.379 33.3569H167.431V31.5076H170.354ZM163.789 33.9733C163.242 33.9733 162.746 34.0675 162.302 34.2558C161.857 34.427 161.472 34.6753 161.148 35.0006C160.84 35.3088 160.592 35.6941 160.404 36.1564C160.233 36.6016 160.147 37.0982 160.147 37.6461C160.147 38.1426 160.233 38.6049 160.404 39.033C160.592 39.4611 160.848 39.8378 161.173 40.1631C161.498 40.4884 161.883 40.7453 162.327 40.9336C162.772 41.122 163.25 41.2161 163.763 41.2161C164.328 41.2161 164.832 41.122 165.276 40.9336C165.738 40.7453 166.123 40.497 166.43 40.1888C166.755 39.8634 167.003 39.4782 167.174 39.033C167.345 38.5878 167.431 38.1084 167.431 37.5947C167.431 36.516 167.106 35.6427 166.456 34.975C165.806 34.3072 164.917 33.9733 163.789 33.9733Z" fill="#E8E0D5"/>
</svg>
